<svg fill="#866340" viewBox="0 0 512 512" enable-background="new 0 0 512 512" id="bookshelf_1_" version="1.1" xml:space="preserve"
    xmlns="http://www.w3.org/2000/svg"
    xmlns:xlink="http://www.w3.org/1999/xlink">
    <g id="SVGRepo_bgCarrier" stroke-width="0"></g>
    <g id="SVGRepo_tracerCarrier" stroke-linecap="round" stroke-linejoin="round"></g>
    <g id="SVGRepo_iconCarrier">
        <path d="M418.317,25.6c-9.342,0-16.94,7.6-16.94,16.941v76.447h-22.519c0-0.001,0-0.002,0-0.002v-17.23 c0-3.652-2.971-6.623-6.623-6.623h-10.177V79.056h10.177c3.652,0,6.623-2.971,6.623-6.623V55.203c0-3.652-2.971-6.623-6.623-6.623 h-91.153c-3.652,0-6.623,2.971-6.623,6.623v16.653h-10.177c-3.653,0-6.624,2.971-6.624,6.623v17.229 c0,3.652,2.971,6.623,6.624,6.623h10.177v16.653c0,0,0,0.002,0,0.003H213.8V33.445c0-3.652-2.971-6.623-6.623-6.623h-21.824 c-3.652,0-6.623,2.971-6.623,6.623v85.543h-10.336V48.891c0-3.652-2.971-6.623-6.624-6.623h-21.823 c-3.652,0-6.624,2.971-6.624,6.623v70.098h-22.699V42.541c0-9.342-7.6-16.941-16.941-16.941c-9.341,0-16.94,7.6-16.94,16.941 v426.918c0,9.342,7.6,16.941,16.94,16.941c9.342,0,16.941-7.6,16.941-16.941V467.2h290.754v2.259c0,9.342,7.599,16.941,16.94,16.941 s16.941-7.6,16.941-16.941V42.541C435.259,33.199,427.659,25.6,418.317,25.6z M103.424,118.988v28.323v131.255h-0.367v28.323h0.367 v131.987V467.2v2.259c0,5.371-4.37,9.741-9.742,9.741c-5.37,0-9.74-4.37-9.74-9.741V42.541c0-5.371,4.37-9.741,9.74-9.741 c5.372,0,9.742,4.37,9.742,9.741V118.988z M371.658,102.332v16.077h-90v-16.077h73.777H371.658z M281.658,55.779h90v16.077h-16.223 h-73.777V55.779z M264.858,95.133V79.056h16.224h73.776v16.077h-73.776H264.858z M185.93,34.022h20.67v84.966h-20.67V34.022z M140.522,49.467h20.671v69.521h-20.671V49.467z M110.623,285.766h16.047h21.824h22.924h17.817h6.705h17.083h187.987v13.924H110.623 V285.766z M127.247,278.566V193.6h20.67v84.967H127.247z M171.993,278.566V193.6h16.665v84.967H171.993z M196.518,278.566V206.8 h15.93v71.767H196.518z M239.176,277.326v-19.562h84.966v19.562H239.176z M110.623,362.932l43.673,75.643 c0.063,0.108,0.147,0.197,0.216,0.303h-43.889V362.932z M115.243,356.534l13.923-8.038l45,77.941l-13.923,8.039L115.243,356.534z M401.377,460H110.623v-13.924h290.754V460z M274.968,418.179v20.228H190v-20.228h17.787H274.968z M208.364,410.979v-16h84.965v16 h-17.785H208.364z M340.726,438.406v-76.039h18.722v76.039H340.726z M366.646,438.406v-76.615v-8.35h18.721v84.965H366.646z M401.377,438.877h-8.81v-86.013c0-3.652-2.971-6.624-6.623-6.624H366.07c-3.653,0-6.623,2.972-6.623,6.624v2.304h-19.298 c-3.652,0-6.624,2.971-6.624,6.623v77.086h-51.358v-20.698h11.739c3.652,0,6.623-2.972,6.623-6.624v-17.152 c0-3.652-2.971-6.624-6.623-6.624h-86.119c-3.652,0-6.623,2.972-6.623,6.624v16.576h-11.74c-3.652,0-6.623,2.972-6.623,6.623v21.275 h-15.778l11.243-6.492c1.533-0.885,2.629-2.313,3.085-4.021c0.459-1.709,0.223-3.495-0.662-5.025l-45.575-78.941 c-0.885-1.531-2.313-2.628-4.021-3.086c-1.709-0.456-3.493-0.224-5.026,0.662l-14.921,8.613c-0.188,0.109-0.347,0.249-0.521,0.373 V306.89h290.754V438.877z M401.377,278.566h-42.081c0.193-0.247,0.39-0.492,0.55-0.77l41.531-71.933V278.566z M353.899,273.698 l-13.924-8.038l45-77.942l13.924,8.038L353.899,273.698z M401.377,188.872l-13.301-7.679c-1.531-0.884-3.314-1.12-5.025-0.661 c-1.71,0.458-3.137,1.555-4.021,3.086l-45.576,78.94c-0.885,1.531-1.12,3.317-0.662,5.027c0.457,1.709,1.555,3.137,3.086,4.021 l12.053,6.959h-16.622c0.022-0.219,0.034-0.439,0.034-0.664v-20.715c0-3.651-2.971-6.623-6.623-6.623H238.6 c-3.652,0-6.624,2.972-6.624,6.623v20.715c0,0.225,0.012,0.445,0.034,0.664h-12.363v-72.343c0-3.652-2.971-6.624-6.623-6.624H195.94 c-0.027,0-0.054,0.004-0.082,0.004v-6.58c0-3.652-2.971-6.624-6.623-6.624h-17.817c-3.652,0-6.624,2.972-6.624,6.624v85.543h-9.677 v-85.543c0-3.652-2.971-6.624-6.623-6.624H126.67c-3.652,0-6.623,2.972-6.623,6.624v85.543h-9.424V147.312h290.754V188.872z M401.377,140.111H110.623v-13.923h29.323h21.823h23.583h21.824h194.2V140.111z M428.059,469.459c0,5.371-4.37,9.741-9.741,9.741 s-9.741-4.37-9.741-9.741V467.2v-28.323V147.312v-28.323V42.541c0-5.371,4.37-9.741,9.741-9.741s9.741,4.37,9.741,9.741V469.459z" id="bookshelf"></path>
    </g>
</svg>