<svg fill="#866340" height="200px" width="200px" version="1.1" id="Capa_1"
	xmlns="http://www.w3.org/2000/svg"
	xmlns:xlink="http://www.w3.org/1999/xlink" viewBox="0 0 426.799 426.799" xml:space="preserve">
	<g id="SVGRepo_bgCarrier" stroke-width="0"></g>
	<g id="SVGRepo_tracerCarrier" stroke-linecap="round" stroke-linejoin="round"></g>
	<g id="SVGRepo_iconCarrier">
		<g>
			<path d="M312.873,156.926c-0.649-2.398-3.129-3.812-5.517-3.167c-1.113,0.301-27.377,7.503-38.853,18.98 c-6.811,6.81-47.389,7.71-55.096,7.71s-48.294-0.894-55.111-7.71c-11.477-11.477-37.74-18.68-38.853-18.98 c-2.394-0.648-4.869,0.77-5.519,3.169c-0.649,2.398,0.77,4.869,3.169,5.519c6.933,1.876,26.708,8.525,34.84,16.657 c8.753,8.752,34.79,10.152,50.549,10.152c4.934,0,16.9,0,21.835,0c15.76,0,41.798-1.401,50.55-10.153 c9.778-9.778,34.591-16.589,34.841-16.656C312.105,161.796,313.523,159.324,312.873,156.926z"></path>
			<path d="M329.213,159.304c-7.857-17.185-10.038-29.432-13.652-49.723c-0.782-4.391-1.627-9.137-2.607-14.363l-0.375-2.012 C306.949,62.953,295.234,0,213.4,0c-81.832,0-93.549,62.951-99.179,93.204l-0.376,2.014c-0.98,5.23-1.826,9.978-2.609,14.37 c-3.613,20.288-5.795,32.533-13.649,49.716c-5.777,12.637-6.793,23.495-3.021,32.273c3.5,8.145,10.983,14.231,22.243,18.092 c6.821,2.339,19.35,3.9,33.27,4.941l-39.915,206.836c-0.254,1.318,0.094,2.682,0.948,3.717c0.855,1.036,2.128,1.636,3.471,1.636 h15.359c2.095,0,3.913-1.446,4.385-3.487l24.306-105.221l54.768-39.803l54.77,39.804l24.306,105.22 c0.472,2.041,2.29,3.487,4.385,3.487h15.359c1.343,0,2.615-0.6,3.471-1.636c0.855-1.035,1.202-2.398,0.948-3.717l-39.915-206.835 c13.92-1.042,26.448-2.604,33.269-4.942c11.26-3.86,18.743-9.947,22.243-18.092C336.005,182.799,334.99,171.94,329.213,159.304z M156.371,287.889l-0.696,0.5c-2.019,1.449-2.48,4.261-1.031,6.279c0.039,0.055,0.085,0.103,0.126,0.154l-4.15,17.965l-1.109,0.807 c-2.011,1.462-2.456,4.275-0.995,6.286c0.113,0.156,0.236,0.303,0.365,0.439l-22.518,97.479h-6.329l16.315-84.54h3.247 c2.485,0,4.5-2.015,4.5-4.5c0-2.485-2.015-4.5-4.5-4.5h-1.511l16.989-88.032h3.225c2.485,0,4.5-2.015,4.5-4.5 c0-2.485-2.015-4.5-4.5-4.5h-1.488l2.319-12.019c4.625,0.269,9.298,0.488,13.876,0.668l-0.667,2.887 c-1.288,0.091-2.529,0.713-3.342,1.844c-1.449,2.019-0.988,4.83,1.031,6.279l0.372,0.268l-2.039,8.829 c-1.175,0.159-2.285,0.77-3.036,1.806c-1.461,2.011-1.016,4.824,0.995,6.286l0.148,0.106L156.371,287.889z M227.392,256.992 l-6.277-4.508l27.361-19.644l1.746,7.56L227.392,256.992z M252.422,249.928l6.933,30.013l-24.261-17.419L252.422,249.928z M213.399,246.945l-32.88-23.606l1.651-7.148c13.964,0.414,25.947,0.48,31.229,0.48c5.282,0,17.266-0.066,31.23-0.48l1.651,7.148 L213.399,246.945z M205.683,252.484l-6.277,4.508l-22.828-16.59l1.746-7.561L205.683,252.484z M191.704,262.522l-24.259,17.417 l6.932-30.009L191.704,262.522z M161.72,304.72l2.656-11.501l34.995-25.124l6.372,4.631L161.72,304.72z M213.399,267.162 l-6.325-4.597l6.325-4.541l6.325,4.541L213.399,267.162z M221.054,272.726l6.371-4.631l34.998,25.126l2.656,11.5L221.054,272.726z M288.715,324.259h-1.454c-2.485,0-4.5,2.015-4.5,4.5c0,2.485,2.015,4.5,4.5,4.5h3.191l16.315,84.54h-6.329l-22.518-97.479 c0.129-0.138,0.251-0.283,0.364-0.439c1.461-2.011,1.016-4.824-0.995-6.286l-1.108-0.806l-4.15-17.968 c0.04-0.052,0.085-0.099,0.124-0.152c1.449-2.019,0.988-4.83-1.031-6.279l-0.694-0.498l-10.097-43.712l0.145-0.104 c2.011-1.462,2.456-4.275,0.995-6.286c-0.751-1.033-1.859-1.645-3.033-1.805l-2.04-8.832l0.371-0.266 c2.02-1.449,2.48-4.261,1.031-6.279c-0.812-1.131-2.052-1.752-3.34-1.844l-0.667-2.887c4.578-0.18,9.251-0.4,13.876-0.668 l2.319,12.019h-1.49c-2.485,0-4.5,2.015-4.5,4.5c0,2.485,2.015,4.5,4.5,4.5h3.227L288.715,324.259z M323.964,188.024 c-2.454,5.711-8.138,10.129-16.894,13.131c-20.533,7.041-92.898,6.523-93.634,6.516c-0.007,0-0.013,0.002-0.02,0.002 c-0.006,0-0.011-0.002-0.017-0.002c-0.013,0-0.025,0-0.038,0c-0.73,0.012-73.095,0.527-93.636-6.516 c-8.755-3.002-14.438-7.42-16.892-13.131c-2.728-6.346-1.739-14.75,2.938-24.979c8.329-18.222,10.714-31.611,14.324-51.879 c0.778-4.368,1.619-9.09,2.595-14.291l0.378-2.025C128.653,64.848,139.047,9,213.4,9c74.354,0,84.747,55.849,90.33,85.853 l0.378,2.023c0.975,5.198,1.814,9.917,2.593,14.283c3.61,20.271,5.995,33.663,14.327,51.887 C325.704,173.274,326.692,181.679,323.964,188.024z"></path>
		</g>
	</g>
</svg>