<svg fill="#866340" height="200px" width="200px" version="1.1" id="Capa_1"
	xmlns="http://www.w3.org/2000/svg"
	xmlns:xlink="http://www.w3.org/1999/xlink" viewBox="0 0 425.234 425.234" xml:space="preserve">
	<g id="SVGRepo_bgCarrier" stroke-width="0"></g>
	<g id="SVGRepo_tracerCarrier" stroke-linecap="round" stroke-linejoin="round"></g>
	<g id="SVGRepo_iconCarrier">
		<path d="M424.91,75.475c-0.569-1.422-5.852-13.988-15.66-17.206c-4.382-1.438-8.992-0.77-13.292,1.9 c-1.555,0.94-37.721,24.281-42.552,150.953h-18.35c5.395-34.708,1.736-58.841-0.645-69.38h7.85c2.136,0,3.978-1.501,4.407-3.593 l3.883-18.867c0.273-1.324-0.064-2.702-0.919-3.751c-0.854-1.048-2.136-1.657-3.488-1.657H79.101c-1.353,0-2.633,0.608-3.488,1.657 c-0.855,1.048-1.192,2.426-0.92,3.751l3.883,18.867c0.431,2.092,2.272,3.593,4.408,3.593h7.849 c-2.379,10.534-6.031,34.67-0.637,69.38H71.832C67.002,84.438,30.83,61.11,29.32,60.198c-4.345-2.698-8.956-3.365-13.337-1.928 c-9.809,3.218-15.09,15.784-15.66,17.206c-0.34,0.849-0.413,1.782-0.21,2.674l5.648,24.773c0.307,1.348,1.217,2.48,2.468,3.07 c1.252,0.59,2.704,0.572,3.939-0.049l8.408-4.224c21.367,46.785,21.67,96.538,21.302,110.043 c-6.274,1.875-10.863,7.692-10.863,14.567c0,4.699,2.144,8.905,5.503,11.697c-4.101,7.478-10.006,25.608,2.463,57.426 c12.312,31.414,7.461,40.174,3.563,47.213c-4.707,8.497-4.707,13.25-4.707,20.531c0,2.485,2.015,4.5,4.5,4.5h15.912 c1.525,0,2.946-0.772,3.776-2.052c0.433-0.668,10.558-16.657,6.423-42.722c-1.024-6.456-2.124-12.817-3.187-18.968 c-2.863-16.566-5.568-32.214-5.08-40.758c0.294-5.16,1.62-8.669,3.732-9.88c2.135-1.223,5.923-0.559,10.673,1.869 c7.17,3.665,16.614,7.826,27.617,8.742c8.407,39.023,4.165,51.706-2.632,64.258c-7.799,14.402-7.799,22.104-7.799,34.864v0.146 c0,2.485,2.015,4.5,4.5,4.5h21.77c1.541,0,2.975-0.789,3.8-2.09c0.729-1.148,17.757-28.652,10.726-73.969 c-1.227-7.908-2.945-18.987-4.442-31.681c3.115-1.219,6.499-2.767,10.406-4.764c4.749-2.428,8.54-3.091,10.673-1.869 c2.112,1.211,3.438,4.72,3.732,9.88c0.488,8.544-2.217,24.191-5.079,40.757c-1.063,6.151-2.163,12.513-3.187,18.968 c-4.137,26.066,5.991,42.055,6.424,42.723c0.829,1.279,2.25,2.051,3.775,2.051h15.912c2.485,0,4.5-2.094,4.5-4.579 c0-7.197,0-11.952-4.707-20.452c-4.786-8.643-7.822-18.161,3.564-47.213c12.468-31.817,6.564-49.957,2.464-57.434 c3.358-2.792,5.502-6.997,5.502-11.696c0-8.385-6.823-15.208-15.209-15.208H124.92c-0.003-17.939,1.637-35.583,6.305-49.936 c5.968-2.25,16.923-4.224,32.177,1.829c21.979,8.723,48.118,8.823,49.22,8.823c1.102,0,27.245-0.1,49.223-8.823 c15.25-6.052,26.207-4.079,32.177-1.829c4.667,14.352,6.308,31.997,6.305,49.936h-41.993c-8.385,0-15.207,6.822-15.207,15.208 c0,4.698,2.143,8.903,5.501,11.695c-4.1,7.478-10.003,25.613,2.466,57.428c11.385,29.054,8.35,38.572,3.563,47.214 c-4.708,8.5-4.708,13.255-4.708,20.531c0,2.485,2.015,4.5,4.5,4.5h15.912c1.525,0,2.946-0.772,3.775-2.052 c0.434-0.668,10.56-16.657,6.425-42.723c-1.023-6.449-2.122-12.805-3.185-18.951c-2.865-16.573-5.571-32.228-5.084-40.774 c0.296-5.161,1.621-8.67,3.733-9.88c2.134-1.223,5.925-0.559,10.674,1.869c3.909,1.999,7.297,3.549,10.419,4.769 c-1.498,12.695-3.216,23.774-4.443,31.683c-7.031,45.316,9.999,72.82,10.728,73.969c0.825,1.301,2.259,2.09,3.8,2.09h21.77 c2.485,0,4.5-2.015,4.5-4.5v-0.142c0-12.762,0-20.465-7.799-34.87c-6.798-12.552-11.039-25.235-2.631-64.264 c10.998-0.917,20.439-5.072,27.603-8.735c4.75-2.428,8.539-3.092,10.674-1.869c2.111,1.211,3.437,4.72,3.73,9.88 c0.488,8.544-2.216,24.191-5.079,40.757c-1.064,6.151-2.162,12.513-3.187,18.969c-4.135,26.065,5.989,42.054,6.423,42.722 c0.829,1.279,2.25,2.052,3.775,2.052h15.912c2.485,0,4.5-2.103,4.5-4.589c0-7.194,0-11.946-4.706-20.442 c-3.898-7.04-8.748-15.801,3.563-47.214c12.47-31.818,6.564-49.951,2.465-57.428c3.358-2.792,5.502-6.997,5.502-11.695 c0-6.876-4.59-12.692-10.864-14.567c-0.367-13.506-0.064-63.259,21.304-110.043l8.407,4.224c1.236,0.621,2.687,0.639,3.939,0.049 c1.251-0.589,2.161-1.722,2.469-3.07l5.648-24.773C425.324,77.258,425.251,76.324,424.91,75.475z M84.622,122.875h256.001 l-2.03,9.867H86.652L84.622,122.875z M26.728,93.659c-0.526-1.083-1.464-1.91-2.604-2.296c-1.141-0.387-2.388-0.299-3.464,0.241 l-7.4,3.718L9.221,77.61c1.571-3.266,5.263-9.386,9.58-10.793c1.16-0.377,3.02-0.682,5.762,1.02 c0.34,0.219,33.612,23.088,38.261,143.286H50.922C51.357,195.204,50.688,142.985,26.728,93.659z M46.224,220.122h45.533 c0.769,4.012,1.67,8.158,2.694,12.415H46.224c-3.423,0-6.208-2.785-6.208-6.208C40.016,222.907,42.8,220.122,46.224,220.122z M78.684,247.174c-7.768-3.971-14.242-4.531-19.245-1.663c-4.981,2.855-7.753,8.634-8.241,17.175 c-0.546,9.573,2.115,24.973,5.197,42.804c1.058,6.121,2.152,12.451,3.167,18.845c2.772,17.475-1.801,29.728-4.005,34.364h-8.664 c0.163-3.999,0.828-6.799,3.527-11.671c5.691-10.278,9.739-22.207-3.057-54.857c-12.027-30.688-5.14-46.276-2.444-50.698 c0.431,0.037,0.865,0.066,1.306,0.066h50.526c1.236,4.632,2.344,8.989,3.329,13.087C90.515,253.211,82.476,249.112,78.684,247.174z M165.762,292.176c-12.797,32.654-8.748,44.582-3.057,54.858c2.69,4.858,3.359,7.657,3.525,11.671h-8.661 c-2.21-4.65-6.778-16.898-4.006-34.364c1.015-6.395,2.108-12.724,3.167-18.846c3.081-17.831,5.743-33.229,5.196-42.803 c-0.487-8.541-3.26-14.319-8.241-17.175c-5.003-2.868-11.479-2.309-19.246,1.663c-2.702,1.381-5.11,2.519-7.332,3.468 c-0.301-2.98-0.582-6.023-0.837-9.11h40.63c0.437,0,0.867-0.029,1.295-0.066C170.922,245.947,177.77,261.534,165.762,292.176z M166.899,220.122c3.424,0,6.209,2.785,6.209,6.208c0,3.423-2.785,6.208-6.209,6.208h-41.282c-0.253-4.102-0.447-8.253-0.566-12.415 H166.899z M115.96,210.028c-0.082,28.959,4.081,59.563,7.716,82.991c5.431,35.002-4.753,58.754-8.288,65.679h-14.601 c0.09-9.645,0.819-15.364,6.7-26.225c10.442-19.284,12.742-38.376-2.433-94.721c-13.75-51.051-7.424-85.864-4.945-96.01h30.16 C120.855,156.897,116.045,179.798,115.96,210.028z M258.524,154.651c-20.335,8.07-45.618,8.188-45.903,8.188 c-0.285,0-25.565-0.118-45.901-8.188c-13.004-5.161-23.576-5.286-31.232-3.907c1.682-3.306,3.6-6.327,5.787-9.002h142.695 c2.187,2.676,4.106,5.697,5.788,9.005C282.103,149.367,271.532,149.489,258.524,154.651z M258.333,220.122h41.861 c-0.119,4.162-0.313,8.313-0.566,12.415h-41.295c-3.423,0-6.207-2.785-6.207-6.208C252.126,222.907,254.91,220.122,258.333,220.122z M290.795,247.174c-7.768-3.971-14.243-4.53-19.245-1.663c-4.981,2.855-7.754,8.634-8.242,17.175 c-0.547,9.577,2.116,24.982,5.2,42.82c1.057,6.116,2.15,12.44,3.164,18.828c2.772,17.477-1.803,29.729-4.006,34.364h-8.664 c0.164-3.998,0.829-6.799,3.527-11.671c5.69-10.275,9.739-22.203-3.058-54.858c-12.001-30.623-5.168-46.211-2.437-50.698 c0.429,0.037,0.86,0.066,1.298,0.066h40.644c-0.255,3.089-0.536,6.133-0.838,9.115C295.914,249.701,293.498,248.555,290.795,247.174 z M317.759,332.473c5.881,10.861,6.609,16.581,6.7,26.226h-14.6c-3.543-6.939-13.721-30.687-8.29-65.679 c3.635-23.427,7.797-54.032,7.716-82.991c-0.085-30.245-4.913-53.13-14.336-68.286h30.196c2.489,10.068,8.86,44.722-4.954,96.01 C305.017,294.097,307.315,313.189,317.759,332.473z M377.872,292.169c-12.796,32.649-8.748,44.579-3.058,54.858 c2.69,4.857,3.358,7.654,3.525,11.671h-8.661c-2.21-4.651-6.776-16.899-4.006-34.364c1.015-6.395,2.108-12.724,3.166-18.846 c3.082-17.831,5.743-33.229,5.197-42.803c-0.487-8.541-3.26-14.319-8.24-17.175c-5.001-2.868-11.478-2.309-19.247,1.663 c-3.788,1.937-11.821,6.024-21.379,7.44c0.984-4.096,2.091-8.448,3.326-13.077h50.514c0.439,0,0.869-0.029,1.299-0.066 C383.038,245.954,389.875,261.541,377.872,292.169z M379.009,232.537h-48.214c1.023-4.256,1.926-8.404,2.695-12.415h45.519 c3.424,0,6.209,2.785,6.209,6.208C385.218,229.753,382.433,232.537,379.009,232.537z M411.975,95.323l-7.4-3.718 c-1.075-0.54-2.322-0.628-3.464-0.241c-1.141,0.386-2.078,1.213-2.604,2.296c-23.958,49.32-24.629,101.538-24.195,117.463h-11.897 C367.063,90.931,400.33,68.056,400.66,67.843c2.752-1.71,4.612-1.404,5.771-1.026c4.319,1.407,8.014,7.534,9.581,10.792 L411.975,95.323z"></path>
	</g>
</svg>