<svg fill="#866340" height="200px" width="200px" version="1.1" id="Capa_1"
	xmlns="http://www.w3.org/2000/svg"
	xmlns:xlink="http://www.w3.org/1999/xlink" viewBox="0 0 438.629 438.629" xml:space="preserve">
	<g id="SVGRepo_bgCarrier" stroke-width="0"></g>
	<g id="SVGRepo_tracerCarrier" stroke-linecap="round" stroke-linejoin="round"></g>
	<g id="SVGRepo_iconCarrier">
		<g>
			<g>
				<g>
					<path d="M201.2,119.086c-0.81,0-1.629-0.218-2.368-0.676c-2.112-1.31-2.762-4.084-1.452-6.196l33.473-53.965 c1.31-2.111,4.084-2.762,6.196-1.452c2.112,1.31,2.762,4.084,1.452,6.196l-33.473,53.965 C204.176,118.331,202.705,119.086,201.2,119.086z"></path>
				</g>
				<g>
					<path d="M203.947,150.011c-0.81,0-1.629-0.218-2.368-0.676c-2.112-1.31-2.762-4.084-1.452-6.196L233.6,89.173 c1.309-2.111,4.083-2.761,6.196-1.452c2.112,1.31,2.762,4.084,1.452,6.196l-33.473,53.965 C206.923,149.255,205.452,150.011,203.947,150.011z"></path>
				</g>
			</g>
			<g>
				<path d="M370.456,254.795v-37.483c0-2.485-2.015-4.5-4.5-4.5h-23.152c-11.58,0-20.856-19.175-26.121-53.992 c-4.277-28.291-4.331-57.03-4.331-57.317v0c-0.001-8.334-6.781-15.113-15.115-15.113c-2.429,0-4.721,0.585-6.755,1.608 c-2.023-21.714-8.894-41.822-19.876-57.651C257.027,10.777,238.811,0,219.314,0c-19.497,0-37.712,10.777-51.291,30.346 c-10.985,15.832-17.855,35.944-19.877,57.664c-2.035-1.027-4.324-1.621-6.755-1.621c-8.334,0-15.114,6.78-15.114,15.114 c0,0.286-0.049,28.942-4.318,57.233c-5.262,34.871-14.543,54.076-26.133,54.076H72.673c-2.485,0-4.5,2.015-4.5,4.5v37.483 c0,1.83,1.096,3.397,2.664,4.101c-1.121,2.17-1.765,4.625-1.765,7.232c0,4.441,1.844,8.455,4.8,11.333 c-2.955,2.878-4.8,6.892-4.8,11.332c0,4.545,1.936,8.637,5.014,11.527c-3.104,4.581-6.723,13.497-5.75,29.653 c0.372,6.183,1.407,12.689,2.718,20.925c1.767,11.102,3.945,24.785,5.745,44.927c-4.733,2.8-7.726,7.903-7.726,13.611 c0,6.64,4.164,12.455,10.138,14.764l0.879,10.313c0.199,2.328,2.147,4.117,4.484,4.117h14.791c2.336,0,4.284-1.788,4.483-4.115 c0,0,0.331-3.856,0.88-10.315c5.974-2.309,10.138-8.124,10.138-14.763c0-5.707-2.992-10.81-7.724-13.61 c1.799-20.152,3.978-33.838,5.746-44.942c1.31-8.229,2.345-14.73,2.717-20.909c0.973-16.157-2.647-25.072-5.752-29.654 c3.077-2.89,5.013-6.983,5.013-11.527c0-4.441-1.844-8.455-4.799-11.332c2.955-2.878,4.799-6.892,4.799-11.333 c0-2.449-0.575-4.761-1.572-6.832h212.041c-0.997,2.072-1.572,4.384-1.572,6.832c0,4.441,1.844,8.455,4.8,11.333 c-2.956,2.878-4.8,6.892-4.8,11.332c0,4.545,1.936,8.637,5.014,11.527c-3.104,4.581-6.723,13.497-5.75,29.653 c0.372,6.183,1.407,12.689,2.718,20.925c1.767,11.102,3.945,24.785,5.745,44.927c-4.733,2.8-7.726,7.903-7.726,13.611 c0,6.64,4.164,12.455,10.138,14.764l0.879,10.313c0.199,2.328,2.147,4.117,4.484,4.117h14.791c2.336,0,4.284-1.788,4.483-4.115 c0,0,0.331-3.856,0.88-10.315c5.974-2.309,10.138-8.124,10.138-14.763c0-5.707-2.992-10.81-7.724-13.61 c1.799-20.152,3.978-33.838,5.746-44.942c1.31-8.229,2.345-14.73,2.717-20.909c0.973-16.157-2.647-25.072-5.751-29.654 c3.077-2.89,5.013-6.983,5.013-11.527c0-4.441-1.844-8.455-4.799-11.332c2.956-2.878,4.799-6.892,4.799-11.333 c0-2.606-0.644-5.061-1.765-7.231C369.36,258.193,370.456,256.625,370.456,254.795z M297.238,95.389 c3.372,0,6.115,2.743,6.115,6.114c0,3.372-2.743,6.115-6.115,6.115c-3.372,0-6.114-2.743-6.114-6.115 C291.124,98.132,293.866,95.389,297.238,95.389z M297.238,116.619c2.314,0,4.5-0.538,6.462-1.472 c0.463,11.308,1.544,28.177,4.072,44.932c3.83,25.38,9.815,42.996,17.871,52.733h-69.627v-23.936 c5.275-4.434,10.179-9.856,14.59-16.214c10.983-15.828,17.853-35.936,19.876-57.65 C292.516,116.036,294.809,116.619,297.238,116.619z M219.314,9c34.634,0,62.81,41.497,62.81,92.504 c0,51.007-28.176,92.505-62.81,92.505c-34.632,0-62.808-41.497-62.808-92.505C156.506,50.497,184.681,9,219.314,9z M247.016,195.267v17.546h-55.403v-17.545c8.643,5.078,18.013,7.741,27.701,7.741 C229.002,203.008,238.372,200.345,247.016,195.267z M141.391,95.389c3.372,0,6.115,2.743,6.115,6.114 c0,3.372-2.743,6.115-6.115,6.115c-3.372,0-6.114-2.743-6.114-6.115C135.277,98.132,138.019,95.389,141.391,95.389z M130.857,160.079c2.528-16.755,3.609-33.625,4.072-44.932c1.962,0.934,4.148,1.472,6.462,1.472c2.431,0,4.72-0.591,6.756-1.616 c2.022,21.717,8.892,41.829,19.876,57.659c4.412,6.358,9.315,11.781,14.59,16.215v23.936h-69.624 C121.044,203.073,127.028,185.457,130.857,160.079z M106.621,329.433c-0.346,5.74-1.351,12.049-2.622,20.036 c-1.782,11.197-4.223,26.532-6.1,48.761c-0.178,2.107,1.135,4.054,3.156,4.678c2.878,0.889,4.811,3.513,4.811,6.529 c0,3.413-2.552,6.321-5.937,6.764c-2.098,0.274-3.721,1.973-3.9,4.081c-0.329,3.873-0.6,7.053-0.796,9.349h-6.527l-0.797-9.35 c-0.18-2.107-1.803-3.805-3.9-4.079c-3.384-0.443-5.936-3.351-5.936-6.764c0-3.016,1.934-5.64,4.813-6.528 c2.021-0.624,3.334-2.571,3.156-4.679c-1.877-22.218-4.317-37.55-6.099-48.745c-1.272-7.993-2.277-14.307-2.623-20.051 c-0.968-16.089,3.175-22.891,4.964-25.043c0.855,0.143,1.728,0.236,2.624,0.236h14.128c0.895,0,1.768-0.092,2.622-0.236 C103.445,306.542,107.589,313.344,106.621,329.433z M78.072,288.793c0-3.768,3.066-6.832,6.834-6.832h14.128 c3.767,0,6.832,3.065,6.832,6.832s-3.065,6.833-6.832,6.833H84.906C81.137,295.626,78.072,292.561,78.072,288.793z M105.866,266.128c0,3.768-3.065,6.833-6.832,6.833H84.906c-3.768,0-6.834-3.065-6.834-6.833s3.066-6.832,6.834-6.832h14.128 C102.8,259.295,105.866,262.36,105.866,266.128z M136.891,250.295H77.173v-28.483h59.718V250.295z M145.891,250.295v-28.483 h69.465c-6.07,1.844-10.502,7.488-10.502,14.153c0,6.911,4.771,12.714,11.187,14.33H145.891z M213.855,235.965 c0-3.194,2.599-5.793,5.793-5.793c3.194,0,5.792,2.599,5.792,5.793c0,3.194-2.599,5.793-5.792,5.793 C216.454,241.758,213.855,239.159,213.855,235.965z M292.738,250.295h-69.485c6.416-1.616,11.187-7.419,11.187-14.33 c0-6.665-4.432-12.309-10.501-14.153h68.799V250.295z M361.311,329.433c-0.346,5.74-1.351,12.049-2.622,20.036 c-1.782,11.197-4.223,26.532-6.1,48.761c-0.178,2.107,1.135,4.054,3.156,4.678c2.877,0.889,4.811,3.513,4.811,6.529 c0,3.413-2.552,6.321-5.936,6.764c-2.098,0.274-3.721,1.973-3.9,4.081c-0.329,3.873-0.6,7.053-0.796,9.349h-6.527l-0.797-9.35 c-0.18-2.107-1.803-3.805-3.9-4.079c-3.384-0.443-5.936-3.351-5.936-6.764c0-3.016,1.934-5.64,4.813-6.528 c2.021-0.624,3.335-2.571,3.156-4.679c-1.877-22.218-4.317-37.55-6.099-48.745c-1.272-7.993-2.277-14.307-2.623-20.051 c-0.968-16.089,3.175-22.891,4.964-25.043c0.855,0.143,1.728,0.236,2.624,0.236h14.128c0.895,0,1.767-0.092,2.623-0.236 C358.134,306.542,362.279,313.344,361.311,329.433z M339.595,281.961h14.128c3.767,0,6.832,3.065,6.832,6.832 s-3.065,6.833-6.832,6.833h-14.128c-3.768,0-6.834-3.065-6.834-6.833S335.827,281.961,339.595,281.961z M332.761,266.128 c0-3.768,3.066-6.832,6.834-6.832h14.128c3.767,0,6.832,3.065,6.832,6.832s-3.065,6.833-6.832,6.833h-14.128 C335.827,272.961,332.761,269.895,332.761,266.128z M361.456,250.295h-59.718v-28.483h59.718V250.295z"></path>
				<g>
					<g>
						<path d="M219.316,185.691c-15.045,0-29.038-9.034-39.399-25.437c-9.956-15.761-15.439-36.625-15.439-58.751 c0-22.125,5.483-42.989,15.439-58.75c10.361-16.403,24.354-25.437,39.399-25.437c15.044,0,29.036,9.034,39.397,25.437 c9.956,15.761,15.439,36.625,15.439,58.75c0,22.125-5.483,42.99-15.439,58.751C248.352,176.657,234.36,185.691,219.316,185.691z M219.316,26.317c-25.275,0-45.838,33.729-45.838,75.187c0,41.459,20.563,75.187,45.838,75.187 c25.274,0,45.836-33.729,45.836-75.187C265.152,60.046,244.59,26.317,219.316,26.317z"></path>
					</g>
				</g>
				<path d="M294.61,347.181v-27.777c0-18.747-38.794-28.863-75.295-28.863s-75.295,10.116-75.295,28.863v27.777 c0,1.59,0.83,2.98,2.075,3.781c-1.425,3.593-2.428,8.698-1.956,15.823c0.272,4.103,1.018,8.358,1.963,13.746 c1.219,6.955,2.714,15.48,3.97,27.859c-3.339,2.159-5.411,5.746-5.411,9.745c0,4.901,2.391,8.839,6.226,10.688l0.538,5.729 c0.218,2.312,2.158,4.079,4.48,4.079h12.765c2.321,0,4.262-1.766,4.48-4.077l0.539-5.731c3.833-1.849,6.225-5.787,6.225-10.688 c0-3.999-2.07-7.585-5.409-9.745c1.255-12.385,2.751-20.913,3.97-27.87c0.944-5.383,1.69-9.635,1.962-13.735 c0.441-6.662-0.408-11.558-1.684-15.103h81.122c-1.277,3.545-2.126,8.441-1.684,15.103c0.272,4.103,1.018,8.358,1.963,13.746 c1.219,6.955,2.714,15.48,3.97,27.859c-3.339,2.159-5.411,5.746-5.411,9.745c0,4.901,2.391,8.839,6.226,10.688l0.538,5.729 c0.218,2.312,2.158,4.079,4.48,4.079h12.765c2.321,0,4.262-1.766,4.48-4.077l0.539-5.731c3.834-1.849,6.225-5.787,6.225-10.688 c0-3.999-2.07-7.585-5.409-9.745c1.255-12.385,2.751-20.913,3.97-27.87c0.944-5.383,1.69-9.635,1.962-13.735 c0.472-7.125-0.532-12.229-1.957-15.822C293.78,350.162,294.61,348.772,294.61,347.181z M178.234,342.681v-18.777h82.162v18.777 H178.234z M153.02,342.681v-18.777h16.214v18.777H153.02z M269.396,342.681v-18.777h16.214v18.777H269.396z M219.315,299.541 c34.003,0,57.124,7.928,64.083,15.363H155.232C162.191,307.469,185.312,299.541,219.315,299.541z M171.457,366.189 c-0.24,3.618-0.949,7.66-1.847,12.777c-1.277,7.285-3.027,17.262-4.373,31.738c-0.201,2.164,1.172,4.162,3.265,4.749 c1.419,0.398,2.411,1.501,2.411,2.681c0,2.571-1.37,2.733-1.955,2.803c-2.106,0.25-3.752,1.938-3.95,4.049l-0.436,4.643h-4.571 l-0.436-4.644c-0.198-2.112-1.844-3.798-3.95-4.048c-0.585-0.069-1.955-0.232-1.955-2.803c0-1.18,0.992-2.283,2.412-2.681 c2.093-0.587,3.467-2.586,3.266-4.75c-1.346-14.469-3.095-24.444-4.372-31.728c-0.898-5.122-1.607-9.167-1.847-12.787 c-0.59-8.893,1.588-12.983,2.758-14.508h12.821C169.868,353.205,172.047,357.295,171.457,366.189z M285.51,366.189 c-0.24,3.618-0.949,7.66-1.847,12.777c-1.277,7.285-3.027,17.262-4.372,31.738c-0.201,2.164,1.172,4.162,3.265,4.749 c1.419,0.398,2.411,1.501,2.411,2.681c0,2.571-1.37,2.733-1.955,2.803c-2.107,0.25-3.753,1.938-3.95,4.049l-0.436,4.643h-4.571 l-0.436-4.644c-0.198-2.112-1.844-3.798-3.95-4.048c-0.585-0.069-1.955-0.232-1.955-2.803c0-1.18,0.992-2.283,2.412-2.681 c2.093-0.587,3.467-2.586,3.266-4.75c-1.346-14.469-3.095-24.444-4.372-31.728c-0.898-5.122-1.607-9.167-1.847-12.787 c-0.59-8.893,1.588-12.983,2.758-14.508h12.821C283.921,353.205,286.1,357.295,285.51,366.189z"></path>
			</g>
		</g>
	</g>
</svg>