<svg fill="#866340" height="200px" width="200px" version="1.1" id="Capa_1"
	xmlns="http://www.w3.org/2000/svg"
	xmlns:xlink="http://www.w3.org/1999/xlink" viewBox="0 0 434.841 434.841" xml:space="preserve">
	<g id="SVGRepo_bgCarrier" stroke-width="0"></g>
	<g id="SVGRepo_tracerCarrier" stroke-linecap="round" stroke-linejoin="round"></g>
	<g id="SVGRepo_iconCarrier">
		<g>
			<g>
				<path d="M420.252,380.315c-6.914-5.012-12.376-8.97,4.155-33.063c18.057-26.314,7.832-44.009,4.837-48.199v-23.06 c0-2.485-2.015-4.5-4.5-4.5H247.208c6.652-10.336,17.253-30.856,18.154-57.759c1.052-31.408-14.697-40.532-22.415-43.11v-14.487 l5.293-5.095c0.917-0.883,1.371-2.061,1.372-3.241l0.007-0.001v-1.684c0-3.847-3.13-6.977-6.977-6.977h-12.806 c4.056-18.491,33.081-22.844,49.215-25.257c3.082-0.462,5.744-0.859,7.678-1.287c1.732-0.383,6.33-1.399,6.33-5.704 c0-3.957-2.789-6.844-5.03-9.164c-0.836-0.866-2.235-2.314-2.412-2.832c-0.048-0.654,0.808-2.576,1.318-3.725 c1.294-2.905,2.904-6.52,1.58-10.157c-1.344-3.689-4.938-5.438-7.825-6.843c-1.1-0.535-2.94-1.43-3.286-1.872 c-0.26-0.594-0.116-2.665-0.031-3.903c0.22-3.185,0.493-7.148-2.011-10.129c-2.508-2.986-6.465-3.402-9.645-3.736 c-1.227-0.129-3.284-0.345-3.763-0.649c-0.439-0.47-1.005-2.448-1.343-3.63c-0.88-3.08-1.975-6.914-5.36-8.872 c-3.36-1.944-7.211-0.989-10.306-0.221c-1.21,0.301-3.24,0.804-3.794,0.676c-0.564-0.293-1.758-1.937-2.471-2.918 c-1.893-2.605-4.248-5.848-8.131-6.527c-3.792-0.66-7.06,1.541-9.685,3.313c-1.046,0.706-2.793,1.884-3.435,1.954 c-0.667-0.075-2.409-1.249-3.454-1.954c-2.625-1.772-5.894-3.979-9.685-3.313c-3.883,0.68-6.238,3.922-8.131,6.527 c-0.713,0.982-1.906,2.625-2.396,2.89c-0.635,0.158-2.659-0.347-3.869-0.647c-3.095-0.768-6.944-1.725-10.305,0.221 c-3.387,1.958-4.481,5.792-5.361,8.872c-0.338,1.182-0.903,3.16-1.282,3.579c-0.539,0.355-2.596,0.571-3.823,0.7 c-3.18,0.334-7.137,0.75-9.645,3.736c-2.504,2.98-2.23,6.944-2.011,10.129c0.085,1.238,0.229,3.309,0.009,3.834 c-0.387,0.51-2.227,1.405-3.326,1.94c-2.888,1.405-6.481,3.153-7.825,6.844c-1.324,3.636,0.286,7.251,1.58,10.156 c0.511,1.148,1.366,3.07,1.335,3.642c-0.193,0.6-1.593,2.048-2.429,2.914c-2.241,2.32-5.03,5.207-5.03,9.164 c0,4.305,4.599,5.321,6.33,5.704c1.934,0.427,4.596,0.825,7.678,1.287c16.134,2.413,45.159,6.767,49.215,25.257h-12.792 c-3.847,0-6.977,3.13-6.977,6.977v1.684l0.007,0.001c0,1.178,0.453,2.355,1.368,3.238l5.281,5.096v14.49 c-7.718,2.578-23.466,11.702-22.414,43.11c0.9,26.901,11.5,47.421,18.154,57.759H10.097c-2.485,0-4.5,2.015-4.5,4.5v23.06 c-2.993,4.189-13.22,21.885,4.837,48.2c16.532,24.092,11.07,28.05,4.156,33.063c-9.324,6.757-9.797,11.125-9.797,17.758 c0,2.485,2.015,4.5,4.5,4.5H33.11c0.837,0,1.657-0.233,2.368-0.674c7.514-4.651,19.867-18.143,12.842-35.913 c-1.488-3.766-2.99-7.271-4.442-10.659c-5.194-12.122-9.297-21.697-5.403-26.887c4.966-6.622,12.517-8.837,34.783,0.564 c21.599,9.121,129.555,11.381,144.162,11.381c14.607,0,122.563-2.26,144.164-11.381c22.27-9.401,29.819-7.185,34.785-0.564 c3.893,5.19-0.212,14.767-5.408,26.892c-1.451,3.387-2.952,6.89-4.44,10.654c-7.023,17.771,5.33,31.262,12.844,35.913 c0.711,0.44,1.531,0.674,2.368,0.674h23.816c2.485,0,4.5-2.078,4.5-4.564C430.049,391.441,429.576,387.072,420.252,380.315z M278.075,88.979c-0.966,2.288-1.791,4.792-1.328,7.443c0.554,3.154,2.813,5.494,4.808,7.559c0.107,0.111,0.224,0.231,0.345,0.357 c-1.317,0.214-2.786,0.434-4.18,0.643c-11.348,1.698-30.168,4.513-43.142,13.257C245.957,101.282,267.046,92.558,278.075,88.979z M252.048,53.037c0.775,2.706,1.697,5.704,4.087,7.71c2.487,2.089,5.757,2.433,8.642,2.736c1.12,0.118,2.928,0.308,3.648,0.61 c0.171,0.76,0.046,2.566-0.031,3.686c-0.2,2.897-0.426,6.181,1.203,8.998c1.051,1.816,2.664,3.052,4.376,4.045 c-6.122,2.042-14.513,5.378-22.977,10.453c-12.559,7.529-21.682,16.772-27.145,27.342 C229.254,84.111,244.672,61.96,252.048,53.037z M196.815,50.274c3.02-1.1,4.937-3.739,6.628-6.067 c0.672-0.925,1.756-2.417,2.388-2.889c0.733,0.241,2.201,1.231,3.111,1.846c2.429,1.639,5.182,3.496,8.479,3.496 s6.05-1.857,8.479-3.496c0.91-0.615,2.378-1.604,3.111-1.846c0.632,0.472,1.716,1.964,2.388,2.889 c1.691,2.329,3.608,4.968,6.629,6.067c1.393,0.507,2.812,0.608,4.212,0.515c-7.506,9.778-18.66,27.659-24.821,53.548 c-6.163-25.894-17.318-43.769-24.828-53.549C193.994,50.884,195.418,50.783,196.815,50.274z M157.122,104.981 c-1.394-0.208-2.862-0.428-4.18-0.643c0.121-0.126,0.237-0.247,0.345-0.357c1.994-2.064,4.254-4.404,4.808-7.561 c0.463-2.647-0.361-5.151-1.327-7.438c11.031,3.579,32.112,12.3,43.49,29.251C187.284,109.492,168.468,106.678,157.122,104.981z M183.84,91.274c-8.464-5.074-16.852-8.41-22.973-10.451c1.713-0.993,3.327-2.229,4.378-4.046 c1.629-2.817,1.403-6.101,1.203-8.998c-0.077-1.119-0.202-2.925-0.031-3.686c0.721-0.302,2.528-0.492,3.648-0.61 c2.885-0.303,6.154-0.647,8.641-2.735c2.389-2.005,3.311-5.001,4.086-7.706c7.37,8.912,22.787,31.052,28.192,65.574 C205.521,108.046,196.398,98.803,183.84,91.274z M238.277,148.139l-2.951,2.841c-0.881,0.848-1.379,2.019-1.379,3.242v15.406 h-33.054v-15.406c0-1.221-0.496-2.39-1.375-3.238l-2.948-2.845H238.277z M196.641,178.628h41.541 c1.303,0.181,9.486,1.729,14.436,12.117c-1.369,0.863-2.429,1.877-3.32,2.74c-1.665,1.612-2.269,2.122-3.871,2.122 c-1.604,0-2.207-0.51-3.873-2.122c-1.916-1.854-4.811-4.656-10.133-4.656s-8.216,2.802-10.131,4.656 c-1.665,1.612-2.268,2.122-3.871,2.122c-1.604,0-2.206-0.51-3.872-2.122c-1.915-1.854-4.81-4.656-10.132-4.656 c-5.322,0-8.217,2.802-10.132,4.657c-1.665,1.612-2.269,2.122-3.87,2.122c-1.604,0-2.207-0.51-3.872-2.122 c-0.891-0.862-1.951-1.873-3.321-2.732C187.194,180.298,195.438,178.792,196.641,178.628z M178.473,213.432 c-0.175-5.224,0.171-9.65,0.863-13.428c1.915,1.854,4.803,4.603,10.076,4.603c5.321,0,8.215-2.802,10.13-4.656 c1.666-1.612,2.268-2.123,3.872-2.123c1.604,0,2.206,0.51,3.872,2.123c1.915,1.854,4.81,4.656,10.132,4.656 c5.322,0,8.216-2.802,10.131-4.656c1.665-1.612,2.269-2.122,3.871-2.122c1.604,0,2.207,0.51,3.873,2.123 c1.916,1.854,4.811,4.656,10.133,4.656c5.273,0,8.163-2.75,10.078-4.604c0.692,3.778,1.038,8.204,0.863,13.429 c-0.049,1.445-0.139,2.865-0.248,4.272c-2.783,0.896-4.652,2.58-6.137,3.92c-1.755,1.585-2.536,2.229-4.273,2.229 c-1.645,0-2.303-0.549-3.961-2.139c-1.928-1.848-4.842-4.64-10.187-4.64c-5.345,0-8.258,2.792-10.186,4.64 c-1.658,1.589-2.314,2.138-3.959,2.138c-1.645,0-2.302-0.549-3.96-2.138c-1.928-1.848-4.842-4.64-10.187-4.64 c-5.345,0-8.258,2.792-10.186,4.64c-1.658,1.589-2.314,2.138-3.959,2.138c-1.734,0-2.515-0.643-4.267-2.227 c-1.483-1.341-3.355-3.027-6.142-3.923C178.612,216.296,178.522,214.877,178.473,213.432z M180.352,229.628 c1.986,1.618,4.659,3.223,8.775,3.223c5.345,0,8.258-2.793,10.186-4.64c1.658-1.589,2.314-2.138,3.959-2.138 c1.645,0,2.302,0.549,3.96,2.138c1.928,1.848,4.842,4.64,10.187,4.64c5.345,0,8.258-2.793,10.186-4.64 c1.658-1.589,2.314-2.138,3.959-2.138c1.645,0,2.302,0.549,3.96,2.138c1.928,1.848,4.842,4.64,10.188,4.64 c4.108,0,6.779-1.599,8.767-3.214c-4.331,21.733-14.672,37.066-18.231,41.855h-37.657 C195.023,266.72,184.676,251.431,180.352,229.628z M14.597,280.492h405.647v16.049H14.597V280.492z M403.115,393.572 c-3.321-2.42-13.425-11.123-8.225-24.278c1.441-3.645,2.917-7.089,4.344-10.418c6.341-14.796,11.35-26.483,4.336-35.836 c-10.78-14.373-28.232-9.613-45.485-2.328c-17.671,7.461-112.849,10.672-140.664,10.672c-27.815,0-122.991-3.211-140.661-10.672 c-17.256-7.286-34.708-12.044-45.484,2.327c-7.015,9.352-2.008,21.037,4.331,35.831c1.428,3.332,2.903,6.776,4.346,10.423 c5.16,13.054-4.942,21.843-8.238,24.278H14.181c0.582-1.812,2.041-3.326,5.689-5.971c14.564-10.556,14.054-22.022-2.017-45.442 c-13.327-19.422-8.269-32.29-5.752-36.618h410.636c2.518,4.329,7.575,17.198-5.752,36.618 c-16.069,23.42-16.578,34.887-2.016,45.442c3.639,2.638,5.099,4.152,5.686,5.971H403.115z"></path>
			</g>
		</g>
	</g>
</svg>