<svg fill="#866340" height="200px" width="200px" version="1.1" id="Capa_1"
	xmlns="http://www.w3.org/2000/svg"
	xmlns:xlink="http://www.w3.org/1999/xlink" viewBox="0 0 451.002 451.002" xml:space="preserve" stroke="#4f4f4f">
	<g id="SVGRepo_bgCarrier" stroke-width="0"></g>
	<g id="SVGRepo_tracerCarrier" stroke-linecap="round" stroke-linejoin="round"></g>
	<g id="SVGRepo_iconCarrier">
		<path d="M446.502,112.569H4.5c-2.485,0-4.5,2.015-4.5,4.5v16.138c0,2.485,2.015,4.5,4.5,4.5h12.273v34.014 c0,1.405,0.657,2.644,1.666,3.469c-1.058,2.033-1.666,4.336-1.666,6.782c0,3.982,1.593,7.594,4.167,10.251 c-2.574,2.656-4.167,6.269-4.167,10.251c0,4.108,1.691,7.826,4.41,10.502c-2.807,4.308-5.939,12.426-5.076,26.773 c0.337,5.614,1.275,11.507,2.463,18.969c1.589,9.986,3.546,22.282,5.168,40.341c-4.276,2.637-6.966,7.316-6.966,12.541 c0,6.093,3.763,11.44,9.194,13.655l0.773,9.064c0.199,2.329,2.147,4.117,4.484,4.117h13.379c2.336,0,4.284-1.788,4.483-4.115 c0,0,0.291-3.383,0.774-9.066c5.431-2.216,9.193-7.563,9.193-13.655c0-5.224-2.69-9.903-6.964-12.541 c1.622-18.067,3.58-30.368,5.169-40.356c1.187-7.455,2.124-13.343,2.462-18.953c0.864-14.347-2.27-22.465-5.077-26.773 c2.718-2.677,4.41-6.395,4.41-10.502c0-3.982-1.593-7.594-4.166-10.251c2.573-2.657,4.166-6.269,4.166-10.251 c0-2.446-0.607-4.749-1.666-6.782c1.008-0.825,1.666-2.064,1.666-3.469v-5.924h103.834l60.922,24.672 c0.045,0.018,0.563,0.33,1.689,0.33s1.644-0.312,1.689-0.33l60.923-24.672h103.833v5.924c0,1.405,0.657,2.644,1.666,3.469 c-1.058,2.033-1.666,4.336-1.666,6.782c0,3.982,1.593,7.594,4.166,10.251c-2.573,2.656-4.166,6.269-4.166,10.251 c0,4.108,1.691,7.826,4.41,10.502c-2.808,4.308-5.941,12.426-5.077,26.774c0.338,5.609,1.275,11.498,2.462,18.953 c1.59,9.988,3.548,22.289,5.169,40.356c-4.274,2.637-6.964,7.317-6.964,12.541c0,6.092,3.763,11.439,9.193,13.655 c0.484,5.683,0.774,9.066,0.774,9.066c0.2,2.328,2.147,4.115,4.483,4.115h13.379c2.337,0,4.285-1.789,4.484-4.117l0.773-9.064 c5.432-2.215,9.194-7.563,9.194-13.655c0-5.224-2.69-9.904-6.966-12.541c1.622-18.059,3.579-30.355,5.168-40.341 c1.188-7.461,2.126-13.355,2.463-18.968c0.864-14.348-2.268-22.465-5.076-26.773c2.719-2.677,4.41-6.395,4.41-10.502 c0-3.982-1.593-7.594-4.167-10.251c2.574-2.657,4.167-6.269,4.167-10.251c0-2.445-0.607-4.749-1.665-6.782 c1.008-0.825,1.665-2.064,1.665-3.469v-34.014h12.275c2.485,0,4.5-2.015,4.5-4.5v-16.138 C451.002,114.583,448.987,112.569,446.502,112.569z M50.739,239.206c-0.312,5.171-1.219,10.868-2.367,18.08 c-1.613,10.135-3.823,24.015-5.522,44.138c-0.178,2.107,1.135,4.054,3.155,4.678c2.422,0.749,4.049,2.957,4.049,5.495 c0,2.872-2.148,5.319-4.996,5.692c-2.098,0.275-3.721,1.973-3.9,4.081c-0.279,3.287-0.512,6.023-0.687,8.063h-5.115l-0.688-8.065 c-0.18-2.107-1.803-3.805-3.9-4.08c-2.848-0.372-4.996-2.82-4.996-5.692c0-2.539,1.628-4.747,4.05-5.495 c2.021-0.624,3.334-2.571,3.156-4.679c-1.699-20.113-3.908-33.99-5.521-44.123c-1.149-7.219-2.056-12.92-2.368-18.095 c-0.842-13.997,2.618-20.107,4.239-22.165c0.718,0.108,1.447,0.182,2.195,0.182h12.779c0.747,0,1.476-0.074,2.193-0.182 C48.12,219.099,51.581,225.209,50.739,239.206z M31.525,176.22h12.779c3.17,0,5.75,2.58,5.75,5.751s-2.58,5.751-5.75,5.751H31.525 c-3.172,0-5.752-2.58-5.752-5.751S28.353,176.22,31.525,176.22z M25.773,167.22v-29.514h24.281v29.514H25.773z M31.525,196.721 h12.779c3.17,0,5.75,2.58,5.75,5.751c0,3.171-2.58,5.751-5.75,5.751H31.525c-3.172,0-5.752-2.58-5.752-5.751 C25.773,199.301,28.353,196.721,31.525,196.721z M9,128.706v-7.138h44.68l17.625,7.138H9z M59.055,156.796v-19.089h34.474 l47.137,19.089H59.055z M225.5,181.442L77.656,121.569h295.689L225.5,181.442z M391.945,156.796h-81.609l47.137-19.089h34.472 V156.796z M425.227,167.22h-24.281v-29.514h24.281V167.22z M406.695,176.22h12.779c3.172,0,5.752,2.58,5.752,5.751 s-2.58,5.751-5.752,5.751h-12.779c-3.17,0-5.75-2.58-5.75-5.751S403.525,176.22,406.695,176.22z M406.695,196.721h12.779 c3.172,0,5.752,2.58,5.752,5.751c0,3.171-2.58,5.751-5.752,5.751h-12.779c-3.17,0-5.75-2.58-5.75-5.751 C400.945,199.301,403.525,196.721,406.695,196.721z M425.909,239.207c-0.311,5.174-1.219,10.875-2.368,18.094 c-1.613,10.133-3.822,24.01-5.521,44.123c-0.178,2.107,1.135,4.055,3.156,4.679c2.422,0.748,4.05,2.956,4.05,5.495 c0,2.872-2.148,5.319-4.996,5.692c-2.097,0.275-3.72,1.972-3.9,4.08l-0.688,8.065h-5.115c-0.174-2.04-0.407-4.776-0.687-8.063 c-0.179-2.108-1.802-3.807-3.9-4.081c-2.848-0.372-4.996-2.82-4.996-5.692c0-2.539,1.627-4.747,4.049-5.495 c2.02-0.624,3.333-2.571,3.155-4.678c-1.699-20.123-3.909-34.003-5.522-44.138c-1.148-7.212-2.055-12.909-2.367-18.08 c-0.842-13.998,2.619-20.107,4.241-22.165c0.718,0.108,1.446,0.182,2.193,0.182h12.779c0.748,0,1.477-0.074,2.195-0.182 C423.291,219.099,426.751,225.21,425.909,239.207z M442.002,128.706h-62.305l17.625-7.138h44.68V128.706z"></path>
	</g>
</svg>