<svg version="1.2" xmlns="http://www.w3.org/2000/svg" viewBox="0 0 500 500" width="500" height="500"><style>tspan{white-space:pre}.a{fill:#ff9067}.b{fill:#dd704e}.c{fill:#00878f}.d{fill:#8ebcb8}.e{fill:#a8d3d1}.f{fill:none;stroke:#b55039;stroke-linecap:round;stroke-miterlimit:10}.g{fill:none;stroke:#003755;stroke-linecap:round;stroke-miterlimit:10}.h{fill:#6d0a0a}.i{fill:#fedc97}.j{fill:#ffbb4c}.k{fill:none;stroke:#b55039;stroke-linecap:round;stroke-linejoin:round}.l{fill:#690505}.m{fill:none;stroke:#222221;stroke-miterlimit:10}.n{fill:#934242}.o{fill:#892424}.p{fill:#680304}.q{fill:#f4ce89}.r{fill:#de7b53}.s{fill:#007095}.t{fill:#015d75}.u{fill:#fff;stroke:#222221;stroke-miterlimit:10}.v{fill:none;stroke:#510307;stroke-miterlimit:10}.w{fill:#c96647}.x{fill:none;stroke:#6d0a0a;stroke-linecap:round;stroke-linejoin:round}.y{fill:none;stroke:#e98c00;stroke-linecap:round;stroke-miterlimit:10}.z{fill:#efa943}.A{fill:none;stroke:#222221;stroke-linecap:round;stroke-linejoin:round}.B{fill:#37a2c6}.C{fill:#298499}.D{fill:#ff9068}.E{fill:#560505}</style><path class="a" d="m316 169.2v25.5q0 0-0.5 0.2c-2.5 0.8-13.3 4.3-21.2 4.6-1.7 0-4.2-1.2-7.2-3.1-11.2-7.4-29.1-25.9-33.9-30.9-4.6-0.8-7.9-2.3-7.9-2.3l2.9-18.7c0 0-2.3-0.9-3.5-3.2-1.1-2.4-0.2-4.1 2.2-3 2.5 1 7.2-0.5 9.1 2.6 1.3 2.3 4.2 8.3 5.6 11.4l36.7 24.3 10.5-4.4 7.2-3z"/><path class="a" d="m241 139.2c0 0-2.3-0.8-4 1.7-1.6 2.4 0.3 4.8 2.5 6 2.2 1.1 10.7 5.1 11.9 2.5 1.3-2.6-2.3-5.2-3.7-5.9 0 0-3.4-1.3-3.6-3.3z"/><path class="a" d="m237.6 145.1c0 0-1.8 3-0.7 6 1.1 3 6.8 4.4 9.2 5.2 2.5 0.8 5.1-1.5 5.6-3.2 0.5-1.7-1.7-3.2-1.7-3.2 0 0-10.7-3.8-12.4-4.8z"/><path class="a" d="m237.6 152.2c0 0-0.7 4.4 0.8 6.2 1.5 1.9 7.4 2.1 8.7 1.7 1.4-0.4 2.6-1.8 2.6-2.7 0-0.8-1.2-1.3-1.2-1.3 0 0-0.9 0.4-3.7-0.4-2.9-0.8-7.2-3.5-7.2-3.5z"/><path class="b" d="m316 169.2l-0.5 25.7c-2.5 0.8-13.3 4.3-21.2 4.6-1.7 0-4.2-1.2-7.2-3.1 1.9-0.8 5.4-2 8.2-1.8 4.1 0.3 4.6 2.3 8.8 0.6 3.5-1.5 4.5-18.1 4.6-23z"/><path class="c" d="m221.7 136.8c0 0-0.8 2.8-0.8 4.3l24.1 1.2-7.5-2z"/><path class="a" d="m240 159.4c0 0 0.3 2.4 2.6 3.6 2.4 1.3 5.7 0.4 6.8-0.3 1.1-0.8 1.2-1.5 0.8-2.4-0.5-0.9-2-1.2-2-1.2 0 0-3.2 2.2-8.2 0.3z"/><path class="b" d="m244.4 138.5c0 0 3.1 3.6 7.4 3.9 4.2 0.4 6.3 8.7 6.4 11 0.2 2.3-0.9 4.2-0.9 4.2 0 0 3.6 1.8 3.2 3.1-0.4 1.4-4.6-1.3-6-0.7-1.4 0.6-3.7 4.3-5.4 4.5-1.7 0.3-3.2-5.7-3.4-9.7-0.3-3.9 1.5-5.7 0.7-8-0.7-2.3-4.6-6.9-2-8.3z"/><path class="d" d="m245.3 142.4c0 0-17.9-4-26.8-6l2.7-4.4c0 0 13.4 3.1 23.2 6.5 0 0 0.7 3.4 0.9 3.9z"/><path class="e" d="m244.8 141.6c0 0-22.8-7.4-27.1-8.1 0 0 6.6-7.7 7.8-8.9 0 0 12.9 4.2 21 13.3 0 0-2.1-0.5-1.7 3.7z"/><path class="f" d="m238.6 145.6c0 0 5.5 2.5 8.5 3.3 3.1 0.8 5.3-1.3 5.1-2.2"/><path class="f" d="m246.4 142.9l5.7 1.7 0.1 0.1c0 0-0.2 4.9 2.3 7.4"/><path class="f" d="m238.6 152.6c0 0 4.7 1.6 7.1 2.2 2.4 0.7 5-0.5 5.4-1.9 0.4-1.4-0.4-2.9-1.6-3.4"/><path class="f" d="m241.6 159.5c0 0 4.1 1 5.4 0.7 1.2-0.3 3.2-2 3-3.3-0.2-1.4-1.2-1.9-1.2-1.9"/><path class="f" d="m248.8 159.3c0 0 1.8-0.1 1.4 2.1-0.4 2.2-3.8 2.3-3.8 2.3"/><path class="f" d="m297.6 179.1c0 0-1.7 7.6-1.3 11.5"/><path class="g" d="m244.1 138.4c0 0-4-2.8-6.7-4.2"/><path class="h" d="m337.5 380.5l34.6 65 23.9-16.6c0 0-19.5-43.6-23.9-54.3-4.5-10.8-10.6-24.2-10.6-24.2 0 0 5.9-91.7 5.9-100.9h-26.9c-9 35-4.6 122.2-3 131z"/><path class="h" d="m313.5 240.5v9h53.9v-9.3z"/><path class="a" d="m346.6 100.5l3.8 15.9-24.7 6.1-0.5-2.7-1.7-8.6c0 0-5.7 1.1-10.4 1q0 0 0 0c-2.9-0.1-5.4-0.8-6.1-2.4-1.6-4.5-2.4-15.6-2.4-15.6l-1.5-2.9c-0.7-1.4-0.2-3.1 1.2-3.9q0.9-0.5 1.9-1.5c2.3-2.2 1.9-6.6 2.8-13.3 1-6.7 3.4-11.1 3.4-11.1 0 0 8.4-4.9 19.5-4.1 11.1 0.8 20.8 7.3 20.8 17.7 0 10.5-6.1 25.4-6.1 25.4z"/><path class="b" d="m339.1 106.3c-4.9 6.1-10.9 12.8-12.9 13.5q-0.4 0.1-1 0l-1.7-8.6c0 0-5.7 1.1-10.4 1l-0.2-1.5c0 0 12.3-2.1 16.8-6.4 4.6-4.3 5.2-7.5 5.2-7.5 0 0 4.2-0.9 6.9 0 2.7 0.8 2.2 3.4-2.7 9.5z"/><path class="i" d="m353.4 114.7c0 0-2.3-6.1-3.7-6.5-1.4-0.5-25 7.1-25.9 7.8-1 0.7-1.2 9.8-1.2 9.8z"/><path class="j" d="m369.7 239c-0.1 2.5-2.2 4.4-4.7 4.4h-49.4c-2.6 0-4.7-2.1-4.7-4.7q0-2.3 0.1-5.4c0.5-21.9 3.6-69.6 3.4-78.5-0.1-11.3 8.2-29 8.2-29l30.8-11.1c0 0 12.5 7.1 16.7 20.8 4.1 13.1 0.6 84.8-0.4 103.5z"/><path class="k" d="m333.3 100.8c0 0-0.5 5.2-7.1 8.8"/><path class="i" d="m324.3 98.9c-0.8 6-4 11.6-11.2 13.3q0 0-0.1 0c-2.4-0.1-4.6-0.6-5.6-1.8q-0.2-0.3-0.4-0.7c-1.3-3.4-2-10.9-2.3-14-0.1-1-0.1-1.5-0.1-1.5l-1.5-2.9c-0.4-0.8-0.4-1.7-0.1-2.4 0.3-0.6 0.7-1.2 1.3-1.5q0.9-0.6 1.9-1.5c0 0 5.4 3.1 11.3 4.6q1.5 0.3 2.6 0.7c3.8 1.2 4.9 2.8 4.2 7.7z"/><path class="l" d="m279.2 231.4h-61.7c-6.6 0-12-5.4-12-12v-41.1c0-6.6 5.4-12 12-12h61.7c6.7 0 12 5.4 12 12v41.1c0 6.6-5.3 12-12 12z"/><path class="m" d="m211.5 175l28 16.9c5.2 3.1 11.7 2.9 16.7-0.4l26.2-17.8"/><path class="m" d="m283.8 220.9l-28-16.9c-5.2-3.1-11.7-2.9-16.7 0.5l-26.2 17.8"/><path class="m" d="m217.2 170.5h63.8"/><path class="n" d="m244.6 166.3h6.5v66.3h-6.5z"/><path class="n" d="m205.5 194.1h85.7v4.8h-85.7z"/><path class="o" d="m230.2 179.2h-8.6c-0.7 0-1.3-0.6-1.3-1.3v-4c0-0.7 0.6-1.3 1.3-1.3h8.6c0.7 0 1.3 0.6 1.3 1.3v4c0 0.7-0.6 1.3-1.3 1.3z"/><path class="p" d="m338.5 96.7l8.4 3.1c0 0 7.9-9.7 9.2-22.5 1.3-12.7-9.2-18.1-9.2-18.1-9.5-9.2-28.2-7.3-36.1-4.3-7.8 3-10 11.3-8 14.1 2 2.8 4.4-1.3 4.4-1.3 0 0-0.7 4.3 2.2 5.3 2.9 1.1 3.9-3.9 3.9-3.9 0 0 0.3 4.2 2 5.2 1.8 1.1 3.1-3.1 3.1-3.1 1.1 3.8 6.8 4.9 6.8 4.9 0 0 0.6 4.2 2.5 5.9 2 1.6 3.2 1.9 3.2 1.9l-0.7 6.5c0 0 0.4 0.6 2.1-1.2 1.8-1.9 2.1-4.1 2.1-4.1 0 0 0.6-4 4-4 3.3 0 3.5 3.2 3.4 4.8-0.2 1.6-1.1 5.3-1.1 5.9 0 0.7-0.8 4-2.2 4.9z"/><path class="f" d="m334.1 98.4l0.4-1.4c0 0 1.8 1.8 4-0.3 2.2-2.1 1.5-6.1 2.8-9.2 1.2-3.1 0-6.8-2.9-6.4-3 0.4-3.2 2.8-3.2 2.8"/><path class="f" d="m340.3 83.8c0 0 0.1-1.1-1.4-1.1-1.5 0-2.9 2.4-2.8 4.5 0.1 2.1 0.6 2.4 0 3.4-0.7 1-1.3 0.7-1.1 2.5 0.1 1.8 1.6 2 2.1 1.5 0.5-0.5-0.3-2-0.3-2"/><path class="f" d="m337.4 85.1c0 0 1.9 1.7 1.7 3.7"/><path class="m" d="m335.8 97.7c0 0-3.8 8.1-15.7 10.7"/><path class="m" d="m318.4 83.3c0 0-0.6-1.6-2.5-1.8-1.9-0.3-2.6 1.6-2.6 1.6"/><path class="a" d="m360.9 158.3c-1.2 13.1-3.2 37-4.4 45.3-0.6 3.4-0.8 7.1-1.4 10.4-1 4.8-2.8 8.8-7.6 10.1q-0.4 0.1-0.9 0.2c-1 0.3-2.4 0.7-4.2 1.2-13.3 3.4-44.7 11.4-54.8 12.8q-0.5 0.3-1.1 0.6 0 0 0 0c-2.7 1.6-6.4 3.8-9.8 5.3-2.1 1-4.1 1.7-5.5 1.9-5.5 0.9-8.4-2-8.4-2 0 0 0 0-2.9-0.6-2.9-0.6-4.4-3.3-4.4-3.3-2.4-0.3-4-3.5-2.1-4.2 1.9-0.6 3.1 0.6 6 0.6q0.9 0 1.9-0.2c2.3-0.5 4.5-1.7 4.8-1.8l-4.9 0.7h-0.2c0 0-5.8-0.7-7.1-1.2-1.4-0.4-2.5-2.9 0-3.6 1-0.4 2.7-0.4 4.4-0.4 2.2 0.1 4.6 0.1 6.3-0.5 2.9-1 7.8-3.7 7.2-4-0.4-0.3-2.4 0-4.6 0.2-0.9 0.1-1.9 0.2-2.7 0.2-2.9 0.2-4.2-3-2.2-3.4 2-0.4 5.7-1.9 9-2.3q0.3-0.1 0.5-0.1c3.6-0.4 13.6 2 13.9 2.1l44-19.2c0 0 0-37.5 0-38.7 0.1-1.3-2.6-23.2 0-29.6l31.2 3c0 0 1.3 7.5 0 20.5z"/><path class="i" d="m361.5 175.9l-33.8 1.1c0 0-0.4-3.5-0.8-8.5-0.4-5.3-0.7-12.2-0.6-18.3 0.2-5.1 0.8-9.4 1.5-12.6 1.1-5 4.9-9.1 9.8-10.6 3.1-1 5.9-1.4 8.5-1.3 8.1 0.1 13.8 4.6 15.4 11.3 1.5 6.3 0 38.9 0 38.9z"/><path class="q" d="m361.5 175.9l-33.8 1.1c0 0-0.4-3.5-0.8-8.5 2.6 0.4 5.7 0.6 8.9 0.2 8.3-1.1 8.5 0.4 14.7-1 6.1-1.4 0.4-8.6 2.9-15.6 2.5-7 1.9-14.5-5.8-24q-1.2-1.4-1.5-2.4c8.1 0.1 13.8 4.6 15.4 11.3 1.5 6.3 0 38.9 0 38.9z"/><path class="r" d="m367.4 249.5c0 0-0.1 1.9-0.3 6.1-0.3 5.1-0.8 13.8-1.5 26.6q-0.1 0.7-0.1 1.5-0.2 2.6-0.4 5.5c-2 19.7-8.5 45.9-10.8 54.9-0.5 2-0.8 3.1-0.8 3.1 0 0 0 2.9 0.1 7.2 0.1 9.3 0.2 25.2-0.1 32.9-0.4 7.8-0.2 35.5-0.1 51.8 0 7.2 0.1 12.2 0.1 12.2h-33.3c0 0-0.2-4.1-0.5-10.8-1.1-24.8-3.9-84.3-3.9-88.9 0-5.9-2.4-39.1-2.3-56.2 0.1-12.6 0.1-31.6 0-40.7 0-3.2 0-5.2 0-5.2z"/><path class="a" d="m345.9 477.4c-3.8 0.6-31.5-0.1-34.3 0-2.7 0.1-11.7 0.9-14-0.5-2.3-1.5 1.9-4.1 2.5-5.3 0.5-1.2 2.5-1.9 5.4-2.8 2.9-0.9 22.4-9.8 22.4-9.8l-0.2-4.8-0.1-2.9h21.2c0 0 0.1 1.5 0.3 3.7 0.4 4.1 1.1 10.8 1.5 14.4 0.6 5.5-0.8 7.5-4.7 8z"/><path class="s" d="m352 478.3c-0.9 0.7-52.8 2.6-58.3 0.8-1.7-0.5-1.4-2.6 0.1-5.4 3.6-6.5 14.3-16.1 22-12.5 2.6 1.2 3.9 6.1 5.3 10.2 1.3 4 28 1.2 30.2 3 0.8 0.6 1.2 1.2 1.4 1.8 0.3 0.9-0.2 1.7-0.7 2.1z"/><path class="b" d="m375.6 443c0 0 5 4.1 5 7.4 0 3.3-2.5 12.2-2.5 12.2l10.6 5.4c0 0 12.2-9 16.7-12.5 4.5-3.5 3.4-8.1 1.7-10-1.7-2-12.4-13.3-13.3-15.1z"/><path class="t" d="m377.8 454.6c0 0 9.5 5.9 11.8 7.3 2.4 1.3 19.8-14.5 21.3-13.7 1.5 0.7 2.3 2.2 1.3 3.8-0.9 1.5-17.6 16-23.4 20.6-6.5 5.1-23.3 7.3-24.6 4-0.9-2.4 1.8-8.8 5-13.7 3.2-4.9 5.2-8.6 8.6-8.3z"/><path class="u" d="m349.5 347.5l-5.3 1.4"/><path class="v" d="m346.1 59.9c0 0-7.2 0.2-10 1.3"/><path class="b" d="m253.8 230.5c1.1-0.4 2.8-0.4 4.5-0.3 1.1 0.6 2 1.3 2.4 2 0.4 0.8 0.5 1.9 0.5 3.1h-0.2c0 0-5.8-0.7-7.1-1.2-1.4-0.4-2.5-2.9-0.1-3.6z"/><path class="b" d="m276.7 244.2c-2.1 1-4.1 1.7-5.5 1.9-5.5 0.9-8.4-2-8.4-2 0 0 0 0-2.9-0.6-2.9-0.6-4.4-3.3-4.4-3.3-2.4-0.3-4-3.5-2.1-4.2 1.9-0.6 3.1 0.6 6 0.6q0.9 0 1.9-0.2c0 1.4 0.1 3 0.9 4.4 1.3 2.3 10.1 3.3 14.5 3.4z"/><path class="w" d="m353.9 265.3c1.1 8 0.2 6.8 2.2 12.3 1.4 3.5 6.2 4.4 9.5 4.5q-0.1 0.8-0.1 1.5-0.2 2.7-0.4 5.6c-4.8 0.6-12.4 0.2-13.2 2.4-1.2 3.2-1.5 8-5 16.5-3.6 8.6-4.5 32.9-2.7 36 1.2 2.3 6.9 0.7 10.1 0-0.5 2-0.8 3.1-0.8 3.1 0 0 0 2.9 0.1 7.2-3.7 2.2-10.5 3.8-10.9 7.2-0.6 4.5-1.7 13.4 0.3 24.5 2 11.2-2.3 38.9 1.2 47.7 1.8 4.7 5.8 5.5 9.2 5.3 0 7.2 0.1 12.2 0.1 12.2h-33.3c0 0-0.2-4.1-0.5-10.8 4-1.2 11.6-4.5 13-11.1 2-9-2.8-43.5-2.8-48.7 0-5.1 1.4-21.1-0.3-25.6-1.7-4.4 0.3-8.4 0.5-12.1 0.3-3.7-1.4-6 0.6-24.6 2-18.5 7.7-49.1 2.9-55.7-4.1-5.5-16.4-7.5-20.1-8 0-3.3 0-5.2 0-5.2h53.9c0 0-0.1 1.9-0.3 6-5.7 1.5-14 4.5-13.2 9.8z"/><path class="f" d="m332.1 205.3c0 0 5.2 4.3 6.5 6.8"/><path class="f" d="m257.4 240.5c0 0 3.7 0.6 7 0 3.2-0.6 5.4-2.6 5.4-2.6"/><path class="f" d="m264.4 244.1c0 0 2.6 0.2 4.2-0.5 1.5-0.6 2.8-2.2 2.8-2.2"/><path class="x" d="m321.1 442.6l28.9 0.4"/><path class="x" d="m335 250c0 0-0.1 6.5 6.5 9.1"/><path class="x" d="m345 250c0 0-1.1 17.6-2.6 31.4-1.5 13.7-6.4 58.5-6.4 58.5 0 0 1.7 2.5 0.9 3.8-0.9 1.3 0.2 3.8 0.2 3.8 0 0 0.6 2.3-0.2 2.9-0.9 0.6 2.3 77.5 0.2 92.2"/><path class="y" d="m329.6 174c0 0 23.3-0.5 28.8-0.6"/><path class="x" d="m366.6 253.3h-3.8c0 0-2 17.2-1.3 22.8 0.6 5.6 3.2 7.4 3.2 7.4"/><path class="y" d="m326.3 124.5l24.1-8.1"/><path class="z" d="m369.7 239c-0.1 2.5-2.2 4.4-4.7 4.4h-49.4c-2.6 0-4.7-2.1-4.7-4.7q0-2.3 0.1-5.4c2.5 1.7 6 3.3 10.6 3.5 9.4 0.2 19.7-3.7 28.8-3.6 9.2 0.1 11.1-11.5 14-29 2.9-17.5 2-74.6-8.3-81.8-3.9-2.7-4-5.4-2.7-7.7 0 0 12.5 7.1 16.7 20.8 4.1 13.1 0.6 84.8-0.4 103.5z"/><path class="b" d="m329.7 180l29 2.9 0.6-7-29.7 1.1z"/><path class="b" d="m355.1 214c-1 4.8-2.8 8.8-7.6 10.1-1.1 0.3-2.8 0.8-5.1 1.4 0.3-2 1.2-7.1 4.5-8.9 3.3-1.7 6.8-2.4 8.2-2.6z"/><path class="b" d="m346.6 224.3c-1 0.3-2.4 0.7-4.2 1.2-13.3 3.4-44.7 11.4-54.8 12.8q-0.5 0.3-1.1 0.6 0.4-0.5 0.4-1c0-1.8-1.2-8.2-0.5-9.3 0.6-1 2.9 6.3 3.8 6.8 1 0.5 51.8-11.8 56.8-14.9 2.2-1.4 1.4 0.9-0.4 3.8z"/><path class="b" d="m271.3 220.3c-0.1 2.5-2.1 4.3-4.1 5.5-0.9 0.1-1.9 0.2-2.7 0.2-2.9 0.2-4.2-3-2.2-3.4 2-0.4 5.6-1.9 9-2.3z"/><path class="A" d="m323.8 93.5c0 0 7.4-3.8 10.6-8.4"/><path class="q" d="m348.9 109.1c0 0-4 2.5-4.7 4.9-0.6 2.4 7.9 0.7 7.6 0-0.3-0.7-2.3-5.9-2.9-4.9z"/><path class="q" d="m304.7 95.7c-0.1-1-0.1-1.5-0.1-1.5l-1.5-2.9c-0.4-0.8-0.4-1.7-0.1-2.4 1.2 0.5 6.7 2.8 7.1 3.5 0.4 0.7-3.4 3.6-5.4 3.3z"/><path class="q" d="m324.3 98.9c-0.8 6-4 11.6-11.2 13.3q0 0-0.1 0c-2.4-0.1-4.6-0.6-5.6-1.8 2.4 0.4 6.7 0.1 10.1-5.2 4-6.3 2.4-11.9 2.6-14 3.8 1.2 4.9 2.8 4.2 7.7z"/><path class="t" d="m352 478.3c-0.9 0.7-52.8 2.6-58.3 0.8-1.7-0.5-1.4-2.6 0.1-5.4 2.5 1.2 6.9 2.5 13.2 1.2 10-2.2 2.9-12 5.4-12.2 2.6-0.1 4.5 5.3 5.5 9 1 3.7 9.5 5.5 17.1 5.6 6 0.1 14.4-0.8 17.7-1.1 0.3 0.9-0.2 1.7-0.7 2.1z"/><path class="b" d="m346.6 456c0 0 0.9 1.7 0 5.1-0.9 3.5-4.9 5.2-4.9 5.2 0 0-0.1-8.1-2.2-8.9-1.4-0.6-8-2.3-11.8-3.2l-0.1-2.9h21.1c0 0 0.2 1.5 0.4 3.7z"/><path class="g" d="m311.6 461.7c0 0 4.5 1.3 6.3 10"/><path class="g" d="m294.6 476.8c0 0 4.8 0.6 23.3 0.6 18.4 0.1 32.1-0.6 32.1-0.6"/><path class="g" d="m374.5 457.4c0 0 8.2 3.1 11.1 6.4"/><path class="g" d="m369.3 474.8c0-0.1 8.9 0 17.5-4.7 8.6-4.7 23.3-19.2 23.3-19.2"/><path class="h" d="m128.4 437.8l-2.8 16.8 25.5 0.6 1.9-14.4z"/><path class="e" d="m186.6 477.9c-6.9 3.5-27.8 1.2-36.8 1.7-9 0.5-27.3 0-28.5-2.3-1.1-2.3 1.8-14.4 1.8-17.3 0-1.7 0.4-3.9 0.7-5.6q0.1-0.6 0.6-1.1c0.5-0.5 1.2-0.8 2-0.6 2.2 0.5 5.9 1.2 10.1 1.2 5.1 0 11.1-1.3 13.9-2 1-0.3 2 0.2 2.5 1.1 0.5 1 1.2 2.5 1.8 3.8 1.1 2.7 12.4 3.3 20.7 6.6 7.2 2.8 7.7 6.1 9 7.7q0.3 0.4 0.7 0.6c2 1.2 1.5 6.2 1.5 6.2z"/><path class="d" d="m186.6 477.9c-6.9 3.5-27.8 1.2-36.8 1.7-9 0.5-27.3 0-28.5-2.3-1.1-2.3 1.8-14.4 1.8-17.3 0-1.7 0.4-3.9 0.7-5.6q0.1-0.6 0.6-1.1c2.3 1 7.3 2.6 13.3 2.6 8.3-0.1 4.7 3.8-1.9 6-6.7 2.1-7.7 7.6-4.8 9.1 2.9 1.5 12.3-2 23.9 1.6 11.7 3.7 27.4-0.2 29.5-1.5q0.3 0.4 0.7 0.6c2 1.2 1.5 6.2 1.5 6.2z"/><path class="a" d="m176.8 91.3l-1.5 2.9c0 0-0.6 9-2 14.1q-0.2 0.8-0.4 1.5c-1.7 4.4-16.4 1.4-16.4 1.4l-1.3 6.5-1 4.8-24.7-6.1 3.8-15.9c0 0-6.1-14.9-6.1-25.4 0-10.4 9.7-16.9 20.8-17.7 11.2-0.8 19.6 4.1 19.6 4.1 0 0 2.4 4.4 3.3 11.1 1 6.7 0.5 11.1 2.9 13.3 0.6 0.7 1.3 1.1 1.8 1.5 1.4 0.8 1.9 2.5 1.2 3.9z"/><path class="b" d="m173.3 108.3q-0.2 0.8-0.4 1.5c-1.7 4.4-16.4 1.4-16.4 1.4l-1.3 6.5-6.9-0.7-7.2-20.1 3.9 0.4c0 0 1.8 7.1 8.8 9.1 5.1 1.4 14.6 2.1 19.5 1.9z"/><path class="s" d="m126.5 114.7c0 0 2.3-6.1 3.7-6.5 1.4-0.5 25 7.1 25.9 7.8 1 0.7 1.2 9.8 1.2 9.8z"/><path class="B" d="m169 243.4h-58.6c0 0-0.9-43.8-0.2-75.5 0.4-14.9 1.1-27.2 2.5-31.1q0.5-1.4 1.1-2.8c5.6-14 12.7-19.3 12.7-19.3l2.3 0.8 28.5 10.3c0 0 5.8 9.2 8.8 26.5 1.3 7.4 2.1 45.4 2.6 70q0 3.7 0.1 6.9 0 2.3 0.1 4.3c0.1 6.1 0.1 9.9 0.1 9.9z"/><path class="f" d="m146.6 100.8c0 0 0.5 5.2 7.2 8.8"/><path class="C" d="m169 243.4h-58.6c0 0-2-94.4 2.3-106.6 5.7-16.1 13.8-22.1 13.8-22.1l2.3 0.8c-3.8 4.4-8.7 14.4-9.2 36.8-0.9 35.9 2.7 74.8 49.2 76.9 0.1 8.5 0.2 14.2 0.2 14.2z"/><path class="p" d="m141.6 96.7l-8.5 3.1c0 0-7.8-9.7-9.2-22.4-1.3-12.8 9.2-18.2 9.2-18.2 9.5-9.2 16.9-6.3 24.8-3.3 7.8 3 12.4 13.4 12.4 13.4l-8.7 1.9c-1.1 3.9-6.8 5-6.8 5 0 0-0.5 4.1-2.5 5.8-2 1.7-3.1 2-3.1 2l0.6 6.4c0 0-0.4 0.7-2.1-1.2-1.7-1.8-2-4-2-4 0 0-0.7-4.1-4-4.1-3.3 0-3.6 3.3-3.4 4.9 0.1 1.6 1 5.2 1 5.9 0 0.6 0.8 3.9 2.3 4.8z"/><path class="D" d="m207.9 209.4v16.2c0 0-0.9 0.1-2.5 0.2-10.5 0.9-52 4.3-67.1 3.8-2.1-0.1-3.8-0.2-4.7-0.5q-0.4-0.1-0.7-0.2h-0.1c-5.2-1.7-7.2-5.4-8.4-10.2-0.5-2.2-0.9-4.5-1.3-7-1.2-8.3-2.8-40.4-4.1-53.4-1.3-13 0-20.5 0-20.5l31.2-3c2.6 6.4-0.1 28.3 0 29.6 0.1 1.2 0 38.7 0 38.7l47 5.2 9.3 1z"/><path class="f" d="m145.8 98.4l-0.4-1.4c0 0-1.8 1.8-4-0.3-2.2-2.1-1.5-6.1-2.8-9.2-1.2-3.1 0-6.8 3-6.4 2.9 0.4 3.1 2.8 3.1 2.8"/><path class="f" d="m139.7 83.8c0 0-0.2-1.1 1.3-1.1 1.5 0 2.9 2.4 2.8 4.5-0.1 2.1-0.6 2.4 0 3.4 0.7 1 1.3 0.7 1.2 2.5-0.2 1.8-1.7 2-2.2 1.5-0.5-0.5 0.3-2 0.3-2"/><path class="f" d="m142.6 85.1c0 0-2 1.7-1.8 3.7"/><path class="g" d="m144.1 97.7c0 0 3.8 8.1 15.7 10.7"/><path class="m" d="m161.5 83.3c0 0 0.6-1.6 2.5-1.8 1.9-0.3 2.6 1.6 2.6 1.6"/><path class="e" d="m177.5 90q0 0.7-0.3 1.3l-1.5 2.9c0 0 0 0.4 0 1.1-0.3 2.8-1.1 10.6-2.4 14.3q0 0 0 0.1c-0.7 1.7-3.2 2.3-6.1 2.4q0 0 0 0c-7.2-1.6-10.4-7.2-11.2-13.2-0.8-5.1 0.5-6.6 4.5-7.9q1-0.3 2.3-0.6c5.9-1.4 11.3-4.5 11.3-4.5q1 0.9 1.9 1.4c1 0.6 1.5 1.7 1.5 2.7z"/><path class="s" d="m152.9 170.9c-0.2 3.6-0.3 5.9-0.3 5.9l-33.7 1.1c0 0-1.8-14.9-1.4-26.8 0.2-5.1 0.8-9.4 1.5-12.6q0.4-2 1.4-3.8c1.8-3.2 4.7-5.7 8.4-6.8 12.5-3.8 21.8 1.2 23.9 10 1 4.7 0.5 23.4 0.2 33z"/><path class="h" d="m110.1 238.7h58.9v10.7h-58.9z"/><path class="s" d="m169.4 355.5c0 1.7-0.1 3.1-0.1 3.9-0.2 2-0.6 5.7-1.1 10.3-2.2 17-6.7 47.7-9 62.7-0.8 5.4-1.3 8.8-1.3 8.8l-37.8-2.2 1.8-12.9 8.1-59.3-3.6-44.8c0 0-5.8-15-10-26.6q-0.6-1.7-1.2-3.3c-1.3-3.7-2.3-6.8-2.8-8.6-1.3-5.5-1.9-22.2-2.2-30 0-2.5-0.1-4.1-0.1-4.1h58.9c0 0 0 1.9 0.1 5 0.1 18.5 0.7 82.5 0.3 101.1z"/><path class="t" d="m146.4 429.4c3.1 1.6 9.5 2.6 12.8 3-0.8 5.4-1.3 8.8-1.3 8.8l-37.8-2.2 1.8-12.9c3.8-0.9 9.6-2.4 10.8-11.7 1.7-13.4 4-35.7 3.6-39.7-0.4-4-1.9-2.6 0-13.7 1.8-11.1 2.4-31.7 0-36-2.4-4.3 0.1-9.4-4.2-16.3-4.2-6.8-0.2-8.8-4.8-10.8-3.8-1.7-8.2-0.6-10.9-2.5q-0.6-1.7-1.2-3.3c2-1.7 9.8-1.6 10.7-8.7 1.1-9 3.4-20.4 1.4-24.1-1.6-3-12.9-5.1-17.1-5.8 0-2.5-0.1-4.1-0.1-4.1h58.9c0 0 0 1.8 0.1 5-6.5 2.8-22.2 10.4-24.7 19.5-3.1 11.4 1.2 46.2 4.6 59.4 3.4 13.1 1.1 16.3 1.1 23.1 0 6.9 0.6 8.6 1.2 10.9 0.6 2.3-1.7 5.7-2.6 13.1-0.8 7.5 0.9 6.3-1.1 24-2 17.7-5.5 22.9-1.2 25z"/><path class="g" d="m121.2 291.6h12.1"/><path class="t" d="m152.9 170.9c-0.2 3.6-0.3 5.9-0.3 5.9l-33.7 1.1c0 0-1.8-14.9-1.4-26.8 0.2-5.1 0.8-9.4 1.5-12.6q0.4-2 1.4-3.8c0.3 10.1 2.7 28.3 14.9 34 5.9 2.7 12 3 17.6 2.2z"/><path class="s" d="m183.2 70.7c0 0-11.6-3.4-14.1-4.7-2.5-1.3-17.9 4.5-23.3 5.1-5.3 0.5-2.5 1.9-1.2 2.1 0 0 10.9 1.7 21.2 1.9 10.2 0.2 14.1-2.6 17.8-2.4 1.1 0 2.4 0.7 2.7 0.2 0.2-0.5 0.6-1.4-3.1-2.2z"/><path class="B" d="m169.1 66c-8.4 5.1-29.3 7-29.3 7l-16 2.3c0 0-0.8-3-0.8-6.7-0.1-2.6 0.3-5.5 1.4-7.9 2.9-5.9 11.5-7 18.3-10.6 2-1 4.3-1.7 6.8-2.2 4.7-0.9 9.9-0.7 13 0.7 0.9 0.4 1.7 0.9 2.2 1.5 2.5 2.9 3.8 11.1 4.2 14.4 0.1 0.9 0.2 1.5 0.2 1.5z"/><path class="C" d="m169.1 66c-8.4 5.1-29.3 7-29.3 7l-16 2.3c0 0-0.8-3-0.8-6.7 1.8 0.2 5.9 0.5 6.8-1 1-1.9 5.1-2.7 9.9-4.6 4.7-1.9 6-4.3 5.9-6.4-0.2-2.2 0.5-3.3 2.9-5.8 1.4-1.4 1.3-2.4 1-2.9 4.7-0.9 9.9-0.7 13 0.7-1.9 0.1-4.7 0.9-6.7 3.6-3.4 4.5-4 9.7-3 13.6 1 3.9 13-0.5 15.3-1.1q0.4-0.1 0.8-0.2c0.1 0.9 0.2 1.5 0.2 1.5z"/><path class="f" d="m148.7 205c0 0-3 3.3-6.1 7.7"/><path class="g" d="m148.7 173.3h-26.7"/><path class="m" d="m203.1 213.9h3.6"/><path class="g" d="m155.8 48.6c0 0-3.3 1.1-5.7 5.5-2.4 4.4-2.1 8.5-4.1 11.3-1.9 2.7-1.9 5.9-1.9 5.9"/><path class="g" d="m126.5 72.9l13.5-2.4"/><path class="g" d="m147.7 250c0 0-1 6.3-4.1 9.1-3.2 2.9-7.3 2.9-7.3 2.9"/><path class="g" d="m136.3 250c0 0 0.2 22.6 0 24.1-0.2 1.5 1.5 14.7 1.5 17.5 0 2.8 3 10.5 5.1 26 2.2 15.4 3 20.1 3 26.5 0 6.5-0.6 9.9 0 10.8 0.7 0.8 0.7 4.2 0 6-0.6 1.7 0.5 4 0.5 4 0 0-6.4 56.6-7.1 64.5"/><path class="g" d="m124.5 432.6l29.3 2.4"/><path class="g" d="m110.9 253.6l8.3 0.9c0 0 0.8 16 0 21.9-0.7 5.9-4.3 7-4.3 7"/><path class="g" d="m124.5 460.9c0 0 5.1 0.2 6.5-5"/><path class="g" d="m121.8 472.6c0 0 1.2 1.3 12.3 2 11.2 0.6 15.9 0 22.5 0.7 6.7 0.6 24.1-0.1 27.5-2.7"/><path class="g" d="m145.7 454.9c0 0 0.4 2.5 4.1 5.4 3.6 2.8 12.6 2.3 19.1 4.5 6.5 2.1 7.9 8.2 7.9 8.2"/><path class="g" d="m155.6 457.8l-2.6 3.7"/><path class="g" d="m159.7 459.2l-1 3.4"/><path class="g" d="m164.6 460.4l-0.2 3"/><path class="b" d="m150.2 179.1l-29.2 6.7-0.5-7.9 29.7-1z"/><path class="b" d="m206.5 209.3l-1.1 16.5c-12.1 1.1-64.5 5.3-71.8 3.3q-0.4-0.1-0.8-0.2c15.6-2.1 58.8-8.1 61.8-9.8 2.8-1.6 2.8-8.2 2.6-10.8z"/><path class="e" d="m238.4 213.1c-0.6 1.1-5.8 4.3-8 4.8q-0.2 0-0.4 0c-0.9 0.2-2 0.2-3.1 0.2l-0.1 0.6h3.2l0.6 0.1c0 0 1.6-0.6 3.7-1.7 2-1.1 2.2-0.9 2.9-0.5 0.7 0.3 0.6 1.5-0.4 2.6-0.9 1.1-2.3 2.3-4.9 3-0.8 0.2-1.8 0.3-2.9 0.4-1 0-2.1 0-3 0l-0.2 0.9 2.4 0.4 0.8 0.2c0 0 0.8-0.6 2.2-1 1.4-0.3 3.3-0.2 3 0.8-0.2 0.9-2.4 2.7-4.8 3-2.3 0.4-5.7 0-5.7 0q-0.1 0-0.1-0.1c-3.8 0-12.8 0-12.8 0l-8.4 2.5c0 0-1.5-1.3-1.2-3.1 0.2-1.8-0.5-2.6-1.2-6.1-0.8-3.5 2.5-4.3 1-7.9-1.5-3.7 0.8-5.4 0.8-5.4q0.1 0.1 0.2 0.1c1.5 0.3 4.3 0.5 4.3 0.5l5.7-2.7c0 0 2.2-1.7 4.2-2.5q0.3-0.1 0.7-0.2c2.1-0.5 7.8-1.1 8.9-1.3 1.1-0.1 1.6 1.9-0.5 2.9q-1.2 0.5-2.2 1c-1.3 0.5-2.4 0.9-3.2 1-1.2 0.1-2.5 2.3-2.5 2.3 0 0-0.3 0-0.7-0.1l0.1 0.1 6.1 0.4c1.9-0.2 4.7-0.3 6.1-0.4h0.1c2.3-0.1 5.9-1.6 6.9-0.1 1 1.5-0.6 2.7-3.1 3.3-0.8 0.3-2 0.6-3.1 0.8-2 0.5-3.9 0.9-4 1l0.3 0.7 3.9-0.2h0.2c0 0 6.1-2.8 7.1-2.7 1 0.2 1.6 1.3 1.1 2.4z"/><path class="g" d="m224.4 214.4c0 0-1 0.4-3 0"/><path class="g" d="m223.9 219.1h-2.5"/><path class="g" d="m208.3 225.9c0 0-1.4-4.1-1.6-7.2-0.2-3.1 0.5-7.4 0.5-7.4"/><path class="d" d="m223.1 204.6c-2.6-1-5.4-1.9-6.9-2.4q0.3-0.1 0.7-0.2c2.1-0.5 7.8-1.1 8.9-1.3 1.1-0.1 1.6 1.9-0.5 2.9q-1.2 0.5-2.2 1z"/><path class="d" d="m234.3 223.9c-0.3 0.9-2.5 2.7-4.9 3-2.3 0.4-5.7 0-5.7 0q-0.1 0-0.1-0.1c-3.8 0-12.8-0.1-12.8-0.1l-8.4 2.6c0 0-1.5-1.3-1.2-3.1 0.2-1.8-0.5-2.6-1.2-6.1-0.8-3.5 2.5-4.3 1-8-1.5-3.6 0.8-5.3 0.8-5.3q0.1 0 0.2 0.1c0.3 1.2 0.9 3 2.2 3.7 2 1.1 0.7 2.9-0.5 3.8-1.2 1 0.5 2.5 1.2 3.8 0.7 1.4-2.7 3.3-2.3 5.2 0.4 1.9 19.8 4 24.5 1.4q0.6-0.3 1.1-0.9l0.8 0.2c0 0 0.8-0.6 2.2-1 1.4-0.4 3.3-0.2 3 0.8z"/><path class="d" d="m229.8 211.9c-0.2-1.7-0.5-3.1-0.8-4h0.1c2.3-0.1 5.9-1.6 6.9-0.1 1 1.5-0.6 2.7-3.1 3.3-0.8 0.3-2 0.6-3.1 0.8z"/><path class="d" d="m236.8 219.2c-0.9 1.1-2.3 2.3-4.9 3-0.8 0.2-1.8 0.3-2.9 0.4 0.5-1.1 0.8-2.4 1-3.9l0.6 0.1c0 0 1.6-0.6 3.6-1.7 2.1-1.1 2.3-0.9 3-0.5 0.7 0.3 0.6 1.5-0.4 2.6z"/><path class="d" d="m238.4 213.1c-0.6 1.1-5.8 4.3-8 4.8q-0.2 0-0.4 0c0.1-1.5 0.1-3 0-4.5h0.2c0 0 6.1-2.8 7.1-2.7 1 0.2 1.6 1.3 1.1 2.4z"/><path class="E" d="m169 243.8v5.6h-58.9v-10.2c3.2 1.5 10.4 4 25.1 4.8 15.2 1 27.7 0.3 33.8-0.2z"/><path class="t" d="m169.4 355.5c0 1.7-0.1 3.1-0.1 3.9-0.2 2-0.6 5.7-1.1 10.3-1 0.9-2.3 1.2-4.1 0.6-8.1-3-7-13.7-6.5-14.7 0.3-0.8 8.6-0.4 11.8-0.1z"/><path class="b" d="m138.3 229.6c-2.2-0.1-3.8-0.2-4.7-0.5q-0.4-0.1-0.8-0.2c-5.2-1.7-7.2-5.4-8.4-10.2 2.1-0.2 5.4-0.1 8.4 1.3 4 1.8 5.2 7.3 5.5 9.6z"/><path class="d" d="m177.5 90q0 0.7-0.3 1.3l-1.5 2.9c0 0 0 0.4 0 1.1-1.8 0.2-4.3-1-4.3-1.7 0.1-0.8 1.2-0.2 2.8-1.2 1.2-0.8 2.6-1.9 3.3-2.4z"/><path class="d" d="m173.3 109.6q0 0 0 0.1c-0.7 1.7-3.2 2.3-6.1 2.4q0 0 0 0c-7.2-1.6-10.4-7.2-11.2-13.2-0.8-5.1 0.5-6.6 4.5-7.9-0.7 1.6-1.7 4.3-1.6 7.4 0.2 4.8 4.2 6.1 5.9 8.6 1.6 2.5 5.3 4.1 8.1 2.8q0.2-0.2 0.4-0.2z"/><path class="g" d="m145.8 84.4c0 0 6.9 7.2 10.8 8.8"/><path class="t" d="m132.1 109.2c0 0 5.7 2.3 7.1 4.6 1.5 2.2-7.5 1.9-9.3 1.2-1.9-0.7-0.3-1.9 0.1-2.7 0.4-0.7 0.1-2.9 2.1-3.1z"/></svg>