<svg version="1.2" xmlns="http://www.w3.org/2000/svg" viewBox="0 0 2500 2500" width="2500" height="2500"><defs><clipPath clipPathUnits="userSpaceOnUse" id="cp1"><path d="m932.18 469.78c0 0-2.59 19.77-16.48 32.19-13.89 12.42-33.82 12.79-33.82 12.79 0 0 2.59-19.76 16.48-32.18 13.89-12.42 33.82-12.8 33.82-12.8z"/></clipPath><clipPath clipPathUnits="userSpaceOnUse" id="cp2"><path d="m793.55 514.66c0 0 16.16-11.68 34.72-10.1 18.57 1.58 32.52 15.82 32.52 15.82 0 0-16.16 11.68-34.72 10.1-18.57-1.58-32.52-15.82-32.52-15.82z"/></clipPath></defs><style>.a{fill:#f2e6dc}.b{fill:#e6d0be}.c{fill:#f7f1eb}.d{fill:#8b865c}.e{fill:#84524d}.f{fill:#efbc73}.g{fill:#363e44}.h{fill:#fff}.i{fill:#d3bba3}.j{fill:#d87355}.k{fill:#e0aa63}</style><path class="a" d="m1250 2165c-506 0-915-409-915-915 0-506 409-915 915-915 506 0 915 409 915 915 0 506-409 915-915 915z"/><path class="b" d="m2145.4 821.9c-6.3-27.2-33.6-43.9-61.1-37.5-27.4 6.5-114.7 78.9-114.7 78.9 0 0 109.9 25.9 137.4 19.5 27.4-6.5 44.6-33.8 38.4-60.9z"/><path class="c" d="m1617.1 948.4c-1 0-2-0.7-2.2-1.7-0.3-1.2 0.5-2.4 1.7-2.6l485.8-114.4c1.2-0.2 2.4 0.5 2.7 1.7 0.3 1.2-0.5 2.3-1.7 2.6l-485.8 114.4q-0.3 0-0.5 0z"/><path class="b" d="m2056.8 983.3c8.3-21.6-2.6-45.6-24.3-53.6-21.7-8-114.6 2.2-114.6 2.2 0 0 62.9 67.9 84.6 75.9 21.7 8 46-3 54.3-24.5z"/><path class="c" d="m2019.5 971.7q-0.4 0-0.8-0.2l-194.9-72c-1.2-0.4-1.8-1.7-1.3-2.8 0.4-1.2 1.6-1.8 2.8-1.4l195 72.1c1.1 0.4 1.7 1.7 1.3 2.8-0.4 0.9-1.2 1.5-2.1 1.5z"/><path class="b" d="m1887.3 801.6c-17.3 18.4-112.6 53.4-112.6 53.4 0 0 29-96.5 46.3-114.8 17.3-18.4 46.2-19.4 64.5-2.5 18.4 17 19.2 45.6 1.8 63.9z"/><path class="c" d="m1710.3 925.3c-0.5 0-1.1-0.3-1.5-0.7-0.9-0.8-0.9-2.2-0.1-3.1l143.5-151.7c0.8-0.9 2.2-0.9 3.1-0.1 0.9 0.9 0.9 2.3 0.1 3.2l-143.5 151.7c-0.4 0.4-1 0.7-1.6 0.7z"/><path class="b" d="m1645.7 437.6c-6.2 33.8 33.3 165.7 33.3 165.7 0 0 83.9-110.8 90.1-144.6 6.2-33.8-16.4-66-50.4-71.8-34.1-5.8-66.7 16.9-73 50.7z"/><path class="c" d="m1599.3 1039.5q-0.1 0-0.4-0.1c-1.1-0.2-1.9-1.4-1.7-2.6l109.7-598c0.2-1.2 1.4-2 2.6-1.8 1.2 0.2 2 1.4 1.7 2.6l-109.7 598c-0.2 1.1-1.1 1.9-2.2 1.9z"/><path class="b" d="m1785.8 564.2c-19.8 20.5-54 129.4-54 129.4 0 0 108.4-38.4 128.3-58.9 19.9-20.5 19.4-52.9-1.1-72.4-20.5-19.5-53.3-18.7-73.2 1.9z"/><path class="c" d="m1646.2 784.1c-0.5 0-1.1-0.2-1.5-0.6-0.9-0.9-0.9-2.3-0.1-3.1l178.6-184.4c0.9-0.8 2.3-0.9 3.1 0 0.9 0.8 0.9 2.2 0.1 3.1l-178.6 184.3c-0.4 0.5-1 0.7-1.6 0.7z"/><path class="b" d="m1568 666.3c12.4 28.1 5.2 151.4 5.2 151.4 0 0-95.8-78.1-108.1-106.1-12.3-28 0.7-60.9 29.1-73.4 28.5-12.5 61.5 0.1 73.8 28.1z"/><path class="c" d="m1619 924.1c-0.8 0-1.6-0.5-2-1.3l-102.1-232.3c-0.5-1.1 0-2.4 1.1-2.9 1.1-0.5 2.4 0.1 2.9 1.2l102.1 232.2c0.5 1.1 0 2.4-1.1 2.9q-0.4 0.2-0.9 0.2z"/><path class="b" d="m2109.5 1412.7c2.5-21.6-13.2-41-35-43.5-21.9-2.4-104.9 27.8-104.9 27.8 0 0 73.9 47.9 95.7 50.3 21.9 2.5 41.6-13 44.2-34.6z"/><path class="c" d="m2075.7 1411.1q-0.1 0-0.3 0l-386.5-43.4c-1.2-0.1-2-1.2-1.9-2.4 0.1-1.2 1.2-2.1 2.4-2l386.5 43.4c1.2 0.1 2.1 1.2 2 2.5-0.1 1.1-1.1 1.9-2.2 1.9z"/><path class="b" d="m2002.2 1507.9c11.7-13.6 10-34.1-3.8-45.7-13.8-11.5-84.7-28.3-84.7-28.3 0 0 28.3 66.2 42.2 77.8 13.8 11.6 34.5 9.9 46.3-3.8z"/><path class="c" d="m1978.4 1490.2c-0.5 0-1-0.1-1.4-0.5l-124.2-103.9c-0.9-0.8-1.1-2.2-0.3-3.2 0.8-0.9 2.2-1 3.1-0.2l124.2 103.9c1 0.8 1.1 2.2 0.3 3.1-0.4 0.6-1.1 0.8-1.7 0.8z"/><path class="b" d="m1925.4 1330.2c-17.5 8.9-96.6 9.7-96.6 9.7 0 0 46.5-63.3 64-72.2 17.6-8.9 39-2.1 48 15.2 9 17.2 2.1 38.4-15.4 47.3z"/><path class="c" d="m1763.7 1375.2c-0.8 0-1.6-0.5-2-1.3-0.5-1-0.1-2.4 1-2.9l145-73.8c1.1-0.5 2.4-0.1 3 1 0.5 1.1 0.1 2.4-1 3l-145 73.7q-0.5 0.3-1 0.3z"/><path class="b" d="m1843.5 999.8c-13.4 23.2-19 130.3-19 130.3 0 0 90.6-59.3 104-82.5 13.4-23.2 5.3-52.7-18.2-65.9-23.5-13.2-53.4-5.1-66.8 18.1z"/><path class="c" d="m1652.3 1429.9q-0.5 0-1.1-0.3c-1-0.6-1.4-2-0.8-3l237.2-410.1c0.7-1.1 2-1.5 3.1-0.8 1 0.6 1.4 1.9 0.8 3l-237.2 410.1c-0.5 0.7-1.2 1.1-2 1.1z"/><path class="b" d="m1913.2 1129.4c-20 9.8-73.6 80.8-73.6 80.8 0 0 89.6 0.3 109.6-9.6 19.9-9.8 28-33.8 18.1-53.4-10-19.7-34.2-27.7-54.1-17.8z"/><path class="c" d="m1753.7 1254.8c-0.9 0-1.6-0.5-2-1.3-0.6-1-0.1-2.4 1-2.9l179.3-88.5c1.1-0.5 2.4-0.1 3 1 0.5 1.1 0 2.4-1 3l-179.4 88.5q-0.5 0.2-0.9 0.2z"/><path class="b" d="m1726.5 1147.3c1.7 23.8-35.8 112.4-35.8 112.4 0 0-49.8-82.4-51.5-106.2-1.7-23.8 16.4-44.5 40.6-46.2 24.1-1.7 45 16.2 46.7 40z"/><path class="c" d="m1697 1350.4c-1.1 0-2.1-0.9-2.2-2.1l-14.1-197.1c-0.1-1.3 0.8-2.3 2-2.4 1.3-0.1 2.3 0.8 2.4 2l14.1 197.2c0.1 1.2-0.8 2.3-2 2.4q-0.1 0-0.2 0z"/><path class="d" d="m1234 701c0 79.1-27.7 151.8-73.9 208.9-61 75.3-145.2 59.5-249.6 59.5-62.3 0-129.5 46.7-179.3 16.9-96.9-58-161.9-164.1-161.9-285.3 0-183.6 148.8-332.3 332.3-332.3 183.6 0 332.4 148.7 332.4 332.3z"/><path class="e" d="m1129 600.5c0 0 204.2 37.8 235.7 208.9l-239.2 19.6z"/><path class="e" d="m772.3 851.7c-56.1 19.6-108.8 29.6-209.2 150.6-63.1 76.1-120.5 94-146.4 64.3-101-116.4 72.6-270.1 174.8-338.4 48.3-32.3 140.1 85.5 180.8 123.5z"/><path class="f" d="m1080.7 780.9l91.6-5.9c-1-64-1.7-112.5-2.7-176.5-101-19.5-196.5-9.7-296.2 4.3-96.2 13.6-217.3 74.4-313.5 132.7l90 193.8 60.1-43.7 21.2 100.7c49.9 29.8 108.1 47 170.4 47 104.4 0 197.5-48.1 258.4-123.4z"/><path class="g" d="m778.8 513.8c-2.7 17.8-19.3 30-37.1 27.3-17.8-2.7-30-19.3-27.3-37.1 2.7-17.8 19.3-30.1 37.1-27.4 17.8 2.7 30 19.4 27.3 37.2z"/><path class="g" d="m769.5 474.8c-9.8 19.7-33.7 27.8-53.5 18-19.8-9.8-27.8-33.7-18-53.5 9.8-19.8 33.7-27.8 53.5-18 19.7 9.8 27.8 33.7 18 53.5z"/><path class="g" d="m787.3 410c-5 17.4-23 27.3-40.4 22.3-17.3-5-27.2-23-22.3-40.3 5-17.3 23.1-27.3 40.4-22.3 17.3 5 27.3 23 22.3 40.3z"/><path class="g" d="m804.4 418.3c-17.9 2.1-34.1-10.8-36.1-28.7-2-17.9 10.8-34 28.7-36 17.9-2.1 34.1 10.8 36.1 28.7 2 17.9-10.8 34-28.7 36z"/><path class="g" d="m872.2 416.7c-11.3 14-31.7 16.3-45.8 5-14.1-11.3-16.3-31.7-5.1-45.8 11.3-14.1 31.8-16.3 45.9-5.1 14 11.3 16.3 31.8 5 45.9z"/><path class="g" d="m895.8 429c-1.5 10-10.9 16.9-20.9 15.4-10-1.6-16.9-10.9-15.4-20.9 1.5-10.1 10.9-17 20.9-15.4 10 1.5 16.9 10.8 15.4 20.9z"/><path class="e" d="m852.2 684.5c-22.4 3.6-43.5-11.6-47.1-33.9l-11.8-72.4c-3.7-22.4 11.5-43.5 33.9-47.1 22.3-3.7 43.4 11.5 47.1 33.8l11.8 72.5c3.6 22.3-11.5 43.4-33.9 47.1z"/><path class="e" d="m816.8 427c3.6-1 38.5-9.6 63.7 11 18.7 15.4 24.4 38.2 28.1 77.7 4.4 46.7 0.5 75.1-11.3 86.4-18.6 17.8-86.7-4.1-116.9-40.5-21.8-26.3-25.9-64-12.6-95.7 13.3-31.6 46.7-38.3 49-38.9z"/><path class="h" d="m910.5 474.9c0 0.3 0.2 0.5 0.2 0.8q0 0.1 0 0.1c1.5 4.1 3.1 8.4 5.3 12.2 1 1.7 2.3 2.5 3.4 4 0.8 1.1 1.6 2.1 2.4 3.1 8.6-11.7 10.4-25.3 10.4-25.3 0 0-10.7 0.3-21.7 5.1z"/><g clip-path="url(#cp1)"><path class="g" d="m921.5 491.6c2.2 13.3-6.9 25.8-20.1 28-13.3 2.1-25.8-6.9-28-20.2-2.2-13.3 6.8-25.8 20.1-27.9 13.3-2.2 25.8 6.8 28 20.1z"/></g><path class="h" d="m834.3 517c0.7 5.1 2.3 8.8 5.7 12.4 12-2.7 20.8-9 20.8-9 0 0-11.5-11.5-27.1-15-0.8 3.7 0.1 8 0.6 11.6z"/><g clip-path="url(#cp2)"><path class="g" d="m797 507.8c8.2-10.7 23.5-12.8 34.2-4.6 10.7 8.2 12.7 23.5 4.5 34.2-8.1 10.6-23.4 12.7-34.1 4.5-10.7-8.2-12.7-23.5-4.6-34.1z"/></g><path class="g" d="m744.4 414.9c-11.5 0.9-17.8 100.1-17.8 100.1 0 0 24.8 41.4 67.4 68-1.2-15.2-13.8-57.4-8.3-68.7 6.8-14.2 7.2-27.1 1.1-40.5 14.6-27.8 99.3-30.2 100.4-31.9 3.5-5.2-40.3-43.8-62.2-61.7-12.4-10.1 13.6 8.6-7 11.2-36.5 4.5-71.6 12.4-73.6 23.5z"/><path class="e" d="m794.5 527c8.5 12.4 6.9 28.3-3.5 35.5-10.5 7.2-25.9 3-34.4-9.4-8.5-12.4-6.9-28.2 3.5-35.4 10.5-7.3 25.9-3.1 34.4 9.3z"/><path class="g" d="m767.7 551c-0.6 0-1.1-0.2-1.6-0.6q-1.1-1.1-2-2.5c-5-7.2-4-16.7 2.3-21q2.4-1.7 5.4-2.1c1.2-0.2 2.3 0.7 2.4 1.9 0.2 1.2-0.6 2.3-1.8 2.5q-1.9 0.2-3.5 1.3c-4.3 3-4.8 9.7-1.2 14.9q0.7 1 1.6 1.9c0.8 0.9 0.8 2.3-0.1 3.1-0.4 0.4-0.9 0.6-1.5 0.6z"/><path class="g" d="m889 540.8q-0.5 0-0.9-0.2c-1.1-0.5-1.6-1.9-1.1-3q1.3-2.8 0.6-4.7c-0.5-1.2-1.4-1.8-3.2-3-1.4-0.9-3.1-2-4.8-3.8-2.3-2.3-4-5.1-5.1-8.4-0.4-1.2 0.2-2.4 1.3-2.8 1.2-0.4 2.4 0.2 2.8 1.3 1 2.7 2.3 5 4.1 6.8 1.4 1.4 2.8 2.3 4.1 3.2 2 1.3 4 2.6 4.9 5.2 0.9 2.4 0.6 5.1-0.7 8.1-0.4 0.8-1.2 1.3-2 1.3z"/><path class="g" d="m877.2 565.5q-1.2 0-2.6-0.2c-6.6-1-10.2-5.7-11.2-7.1-0.7-1-0.4-2.4 0.6-3.1 1-0.6 2.4-0.4 3.1 0.6 0.7 1.1 3.3 4.5 8.2 5.3 4.3 0.7 7.7-1.2 8.9-2 1-0.7 2.4-0.4 3.1 0.6 0.6 1 0.4 2.4-0.6 3-1.4 1-4.9 2.9-9.5 2.9z"/><path class="g" d="m873.6 610.6q-0.1 0-0.2-0.1c-51.4-5.7-67.4-24.9-68-25.7-0.8-1-0.7-2.3 0.3-3.1 0.9-0.8 2.3-0.6 3.1 0.3 0.1 0.2 15.8 18.7 65.1 24.2 1.2 0.1 2 1.2 1.9 2.4-0.1 1.1-1.1 2-2.2 2z"/><path class="h" d="m1413.9 1911.3l-161.6 69.9-115.1-50.4c-238.8-104.5-392.9-339.9-392.9-599.8l5.9-515.4 506.7-131.8 515.3 137.7-5.9 554.4c0 232.4-138.4 442.8-352.4 535.4z"/><path class="a" d="m1390.7 1836.8l-139.2 61.7-99.1-44.5c-205.7-92.3-338.5-300.2-338.5-529.7l5.1-455.3 436.1-111.6 444.2 116.8-5.1 489.7c0 205.3-119.2 391.1-303.5 472.9z"/><path class="c" d="m1255.1 757.4l-6.4 1.7v1138.2l2.8 1.2 139.2-61.7c184.3-81.8 303.5-267.6 303.5-472.9l5.1-489.7z"/><path fill-rule="evenodd" class="i" d="m1253.1 2009.7q-0.5 0-0.9-0.2l-119.4-52.3c-248.5-108.8-409-353.8-409-624.2l6.1-534.8c0-1 0.7-1.8 1.7-2.1l525.6-136.7q0.6-0.2 1.1 0l534.7 142.8c1 0.3 1.7 1.2 1.7 2.2l-6.2 575.1c0 242.2-144 461-366.9 557.5l-167.6 72.5q-0.4 0.2-0.9 0.2zm-518.8-1209.7l-6.1 533c0 268.7 159.5 512.1 406.3 620.2l118.6 51.9 166.7-72.2c221.3-95.7 364.3-313 364.3-553.4l6.1-573.4-532.4-142.3z"/><path fill-rule="evenodd" class="h" d="m1474 1282.2c-95.7 0-173.5-77.8-173.5-173.5 0-95.6 77.8-173.4 173.5-173.4 95.6 0 173.5 77.8 173.5 173.4 0 95.7-77.9 173.5-173.5 173.5zm0-342.5c-93.2 0-169.1 75.8-169.1 169 0 93.3 75.9 169.1 169.1 169.1 93.2 0 169.1-75.8 169.1-169.1 0-93.2-75.9-169-169.1-169z"/><path class="h" d="m1474 1109.8c-54.5 0-89.8 20.9-89.8 54.3 16.9 32.3 50.8 54.3 89.8 54.3 39 0 72.8-22 89.8-54.3 0-31.7-38.8-54.3-89.8-54.3z"/><path class="h" d="m1519.8 1044.9c-4.1 25.3-27.9 42.4-53.2 38.3-25.3-4.1-42.4-27.9-38.3-53.1 4.1-25.3 27.9-42.5 53.2-38.4 25.2 4.1 42.4 27.9 38.3 53.2z"/><path fill-rule="evenodd" class="h" d="m1046.2 1614.2c-95.7 0-173.5-77.8-173.5-173.5 0-95.7 77.8-173.5 173.5-173.5 95.6 0 173.4 77.8 173.4 173.5 0 95.7-77.8 173.5-173.4 173.5zm0-342.6c-93.3 0-169.1 75.9-169.1 169.1 0 93.2 75.8 169.1 169.1 169.1 93.2 0 169-75.9 169-169.1 0-93.2-75.8-169.1-169-169.1z"/><path class="h" d="m1046.2 1441.8c-54.5 0-89.9 20.8-89.9 54.3 17 32.2 50.9 54.2 89.9 54.2 39 0 72.8-22 89.8-54.2 0-31.7-38.9-54.3-89.8-54.3z"/><path class="h" d="m1046.2 1415.8c-25.7 0-46.4-20.7-46.4-46.4 0-25.6 20.7-46.3 46.4-46.3 25.6 0 46.3 20.7 46.3 46.3 0 25.7-20.7 46.4-46.3 46.4z"/><path class="j" d="m917.8 1048.3l48.5 170.7 149.6-95.5-40.4-15.4c10.9-35.5 32.6-85.2 76.5-130.8 88.1-91.7 189.5-65.1 216.1-66.2-33.9-21.5-143.8-85.2-274.8-5.7-78.9 47.9-117.5 117.1-134.9 158.3z"/><path class="j" d="m1609.6 1509.9l-48.5-170.7-149.6 95.5 40.4 15.4c-10.9 35.5-32.6 85.2-76.5 130.8-88.1 91.7-189.5 65-216.1 66.2 33.9 21.5 143.8 85.2 274.8 5.7 78.9-47.9 117.5-117.1 134.9-158.3z"/><path class="e" d="m524.3 918.5c0 0 103.3 117.4 153.7 183.5 53 69.4 121 179.6 105.5 188.9-8.9 5.3-21.3-7.8-52-45-0.4 3.4-3.2 13.2-12.2 16.7-13.4 5.3-21.3-3.9-22.4-4.4 0 1.2-0.5 13.8-8.8 18.9-9.4 5.7-18.8 3.9-25.8-1.1-0.1 2.9-1.7 13.6-9.9 18.3-8.3 4.7-20.5 3.6-26.5-4.5-11-14.8-42.7-59.5-60.8-79.4-23.7-26-95.7-88.5-152.1-148.1-33-34.9-19.2-92.1 25.9-108.5 46.1-16.9 85.4-35.3 85.4-35.3z"/><path class="g" d="m621.9 1269.9c-0.8 0-1.5-0.4-1.9-1.2-0.6-1-0.2-2.4 0.8-3l13.6-7.6c1.1-0.6 2.5-0.2 3 0.9 0.6 1 0.3 2.4-0.8 3l-13.6 7.6q-0.5 0.3-1.1 0.3z"/><path class="g" d="m654.4 1250.9c-0.8 0-1.6-0.4-2-1.2-0.5-1.1-0.1-2.4 1-3l15.6-8.1c1.1-0.5 2.4-0.1 3 1 0.6 1 0.1 2.4-0.9 2.9l-15.7 8.1q-0.5 0.3-1 0.3z"/><path class="g" d="m689.9 1233.3c-0.8 0-1.5-0.4-1.9-1.1-0.6-1.1-0.3-2.4 0.8-3 2.5-1.4 4.8-2.7 7.2-4 2.2-1.2 4.5-2.5 7.1-3.9 1-0.6 2.4-0.3 3 0.8 0.6 1.1 0.2 2.4-0.9 3-2.5 1.4-4.8 2.7-7.1 4-2.3 1.2-4.6 2.5-7.1 3.9q-0.6 0.3-1.1 0.3z"/><path class="g" d="m717.6 1216c-0.7 0-1.4-0.3-1.8-0.9-0.7-1.1-0.4-2.4 0.6-3.1l12.9-8.5c1.1-0.7 2.4-0.4 3.1 0.6 0.7 1 0.4 2.4-0.6 3l-12.9 8.6q-0.6 0.4-1.3 0.3z"/><path class="k" d="m1309.4 2159.6c-72.8 0-131.6-18.6-131.6-41.6 0-23.1 58.8-41.7 131.6-41.7 72.7 0 131.6 18.6 131.6 41.7 0 23-58.9 41.6-131.6 41.6z"/><path class="k" d="m1177.8 2076.5h263.2v42.9h-263.2z"/><path class="f" d="m1309.4 2118.9c-72.8 0-131.6-18.6-131.6-41.6 0-23.1 58.8-41.7 131.6-41.7 72.7 0 131.6 18.6 131.6 41.7 0 23-58.9 41.6-131.6 41.6z"/><path fill-rule="evenodd" class="h" d="m1324.9 2121.1c-75.1 0-133.8-19.2-133.8-43.8 0-24.6 58.7-43.9 133.8-43.9 75 0 133.8 19.3 133.8 43.9 0 24.6-58.8 43.8-133.8 43.8zm0-83.3c-70.2 0-129.4 18.1-129.4 39.5 0 21.4 59.2 39.4 129.4 39.4 70.1 0 129.4-18 129.4-39.4 0-21.4-59.3-39.5-129.4-39.5z"/><path class="k" d="m1865.5 2064.8c-72.8 0-131.6-18.6-131.6-41.7 0-23 58.8-41.6 131.6-41.6 72.8 0 131.6 18.6 131.6 41.6 0 23.1-58.8 41.7-131.6 41.7z"/><path class="k" d="m1733.9 1981.6h263.2v43h-263.2z"/><path class="f" d="m1865.5 2024.1c-72.8 0-131.6-18.6-131.6-41.7 0-23 58.8-41.6 131.6-41.6 72.8 0 131.6 18.6 131.6 41.6 0 23.1-58.8 41.7-131.6 41.7z"/><path fill-rule="evenodd" class="h" d="m1881 2026.3c-75 0-133.8-19.3-133.8-43.9 0-24.6 58.8-43.8 133.8-43.8 75 0 133.8 19.2 133.8 43.8 0 24.6-58.8 43.9-133.8 43.9zm0-83.3c-70.1 0-129.4 18.1-129.4 39.4 0 21.4 59.3 39.5 129.4 39.5 70.1 0 129.4-18.1 129.4-39.5 0-21.4-59.2-39.4-129.4-39.4z"/><path class="k" d="m1875 1997c-72.8 0-131.6-18.6-131.6-41.7 0-23 58.8-41.7 131.6-41.7 72.7 0 131.6 18.7 131.6 41.7 0 23.1-58.9 41.7-131.6 41.7z"/><path class="k" d="m1743.4 1913.8h263.2v42.9h-263.2z"/><path class="f" d="m1875 1956.3c-72.8 0-131.6-18.6-131.6-41.7 0-23 58.8-41.7 131.6-41.7 72.7 0 131.6 18.7 131.6 41.7 0 23.1-58.9 41.7-131.6 41.7z"/><path fill-rule="evenodd" class="h" d="m1890.5 1958.5c-75.1 0-133.8-19.3-133.8-43.9 0-24.6 58.7-43.9 133.8-43.9 75 0 133.8 19.3 133.8 43.9 0 24.6-58.8 43.9-133.8 43.9zm0-83.4c-70.2 0-129.4 18.1-129.4 39.5 0 21.4 59.2 39.5 129.4 39.5 70.1 0 129.4-18.1 129.4-39.5 0-21.4-59.3-39.5-129.4-39.5z"/><path class="k" d="m1336.5 2091.8c-72.8 0-131.6-18.6-131.6-41.7 0-23 58.8-41.6 131.6-41.6 72.8 0 131.6 18.6 131.6 41.6 0 23.1-58.8 41.7-131.6 41.7z"/><path class="k" d="m1204.9 2008.6h263.2v43h-263.2z"/><path class="f" d="m1336.5 2051.1c-72.8 0-131.6-18.6-131.6-41.7 0-23 58.8-41.6 131.6-41.6 72.8 0 131.6 18.6 131.6 41.6 0 23.1-58.8 41.7-131.6 41.7z"/><path fill-rule="evenodd" class="h" d="m1352 2053.3c-75 0-133.8-19.3-133.8-43.9 0-24.6 58.8-43.8 133.8-43.8 75 0 133.8 19.2 133.8 43.8 0 24.6-58.8 43.9-133.8 43.9zm0-83.3c-70.1 0-129.4 18-129.4 39.4 0 21.4 59.3 39.5 129.4 39.5 70.1 0 129.4-18.1 129.4-39.5 0-21.4-59.3-39.4-129.4-39.4z"/><path class="k" d="m1309.4 2024c-72.8 0-131.6-18.7-131.6-41.7 0-23 58.8-41.7 131.6-41.7 72.7 0 131.6 18.7 131.6 41.7 0 23-58.9 41.7-131.6 41.7z"/><path class="k" d="m1177.8 1940.8h263.2v42.9h-263.2z"/><path class="f" d="m1309.4 1983.3c-72.8 0-131.6-18.6-131.6-41.7 0-23 58.8-41.7 131.6-41.7 72.7 0 131.6 18.7 131.6 41.7 0 23.1-58.9 41.7-131.6 41.7z"/><path fill-rule="evenodd" class="h" d="m1324.9 1985.5c-75.1 0-133.8-19.3-133.8-43.9 0-24.6 58.7-43.9 133.8-43.9 75 0 133.8 19.3 133.8 43.9 0 24.6-58.8 43.9-133.8 43.9zm0-83.4c-70.2 0-129.4 18.1-129.4 39.5 0 21.4 59.2 39.5 129.4 39.5 70.1 0 129.4-18.1 129.4-39.5 0-21.4-59.3-39.5-129.4-39.5z"/><path class="k" d="m1634 2136.2c-72.8 0-131.6-18.6-131.6-41.7 0-23 58.8-41.6 131.6-41.6 72.8 0 131.6 18.6 131.6 41.6 0 23.1-58.8 41.7-131.6 41.7z"/><path class="k" d="m1502.4 2053h263.2v42.9h-263.2z"/><path class="f" d="m1634 2095.5c-72.8 0-131.6-18.6-131.6-41.7 0-23 58.8-41.6 131.6-41.6 72.8 0 131.6 18.6 131.6 41.6 0 23.1-58.8 41.7-131.6 41.7z"/><path fill-rule="evenodd" class="h" d="m1649.5 2097.7c-75 0-133.8-19.3-133.8-43.9 0-24.6 58.8-43.8 133.8-43.8 75 0 133.8 19.2 133.8 43.8 0 24.6-58.8 43.9-133.8 43.9zm0-83.3c-70.1 0-129.4 18-129.4 39.4 0 21.4 59.3 39.5 129.4 39.5 70.1 0 129.4-18.1 129.4-39.5 0-21.4-59.3-39.4-129.4-39.4z"/><path class="k" d="m1661.1 2068c-72.7 0-131.6-18.5-131.6-41.5 0-23 58.9-41.6 131.6-41.6 72.8 0 131.6 18.6 131.6 41.6 0 23-58.8 41.5-131.6 41.5z"/><path class="k" d="m1529.5 1985.1h263.2v42.8h-263.2z"/><path class="f" d="m1661.1 2027.4c-72.7 0-131.6-18.5-131.6-41.5 0-23 58.9-41.6 131.6-41.6 72.8 0 131.6 18.6 131.6 41.6 0 23-58.8 41.5-131.6 41.5z"/><path fill-rule="evenodd" class="h" d="m1676.6 2029.6c-75 0-133.8-19.2-133.8-43.7 0-24.6 58.8-43.8 133.8-43.8 75.1 0 133.8 19.2 133.8 43.8 0 24.5-58.7 43.7-133.8 43.7zm0-83.1c-70.1 0-129.4 18.1-129.4 39.4 0 21.3 59.3 39.3 129.4 39.3 70.2 0 129.4-18 129.4-39.3 0-21.3-59.2-39.4-129.4-39.4z"/><path class="k" d="m1352 1963.7c-72.8 0-131.6-18.7-131.6-41.7 0-23.1 58.8-41.7 131.6-41.7 72.8 0 131.6 18.6 131.6 41.7 0 23-58.8 41.7-131.6 41.7z"/><path class="k" d="m1220.4 1880.5h263.2v42.9h-263.2z"/><path class="f" d="m1352 1923c-72.8 0-131.6-18.7-131.6-41.7 0-23.1 58.8-41.7 131.6-41.7 72.8 0 131.6 18.6 131.6 41.7 0 23-58.8 41.7-131.6 41.7z"/><path fill-rule="evenodd" class="h" d="m1367.5 1925.2c-75 0-133.8-19.3-133.8-43.9 0-24.6 58.8-43.9 133.8-43.9 75 0 133.8 19.3 133.8 43.9 0 24.6-58.8 43.9-133.8 43.9zm0-83.4c-70.1 0-129.4 18.1-129.4 39.5 0 21.4 59.3 39.5 129.4 39.5 70.1 0 129.4-18.1 129.4-39.5 0-21.4-59.3-39.5-129.4-39.5z"/><path class="k" d="m1900.8 1929.2c-72.7 0-131.6-18.7-131.6-41.7 0-23.1 58.9-41.7 131.6-41.7 72.8 0 131.6 18.6 131.6 41.7 0 23-58.8 41.7-131.6 41.7z"/><path class="k" d="m1769.2 1846h263.2v42.9h-263.2z"/><path class="f" d="m1900.8 1888.5c-72.7 0-131.6-18.7-131.6-41.7 0-23.1 58.9-41.7 131.6-41.7 72.8 0 131.6 18.6 131.6 41.7 0 23-58.8 41.7-131.6 41.7z"/><path fill-rule="evenodd" class="h" d="m1916.3 1890.7c-75 0-133.8-19.3-133.8-43.9 0-24.6 58.8-43.9 133.8-43.9 75.1 0 133.8 19.3 133.8 43.9 0 24.6-58.7 43.9-133.8 43.9zm0-83.4c-70.1 0-129.4 18.1-129.4 39.5 0 21.4 59.3 39.5 129.4 39.5 70.2 0 129.4-18.1 129.4-39.5 0-21.4-59.2-39.5-129.4-39.5z"/><path class="k" d="m1872.8 1868.8c-72.8 0-131.6-18.6-131.6-41.6 0-23.1 58.8-41.7 131.6-41.7 72.8 0 131.6 18.6 131.6 41.7 0 23-58.8 41.6-131.6 41.6z"/><path class="k" d="m1741.2 1785.7h263.2v42.9h-263.2z"/><path class="f" d="m1872.8 1828.1c-72.8 0-131.6-18.6-131.6-41.6 0-23.1 58.8-41.7 131.6-41.7 72.8 0 131.6 18.6 131.6 41.7 0 23-58.8 41.6-131.6 41.6z"/><path fill-rule="evenodd" class="h" d="m1888.3 1830.3c-75 0-133.8-19.2-133.8-43.8 0-24.6 58.8-43.9 133.8-43.9 75 0 133.8 19.3 133.8 43.9 0 24.6-58.8 43.8-133.8 43.8zm0-83.3c-70.1 0-129.4 18.1-129.4 39.5 0 21.4 59.3 39.4 129.4 39.4 70.2 0 129.4-18 129.4-39.4 0-21.4-59.2-39.5-129.4-39.5z"/><path class="k" d="m1672.8 1999.2c-16.3 16.2-71-12.5-122.2-64.2-51.2-51.7-79.4-106.6-63-122.8 16.4-16.2 71 12.5 122.2 64.2 51.2 51.7 79.4 106.6 63 122.8z"/><path class="k" d="m1517.2 1783.1l185.2 187-30.5 30.2-185.2-186.9z"/><path class="f" d="m1701.8 1970.6c-16.4 16.2-71.1-12.5-122.3-64.2-51.2-51.7-79.4-106.6-63-122.8 16.4-16.2 71 12.5 122.2 64.1 51.3 51.7 79.4 106.6 63.1 122.9z"/><path fill-rule="evenodd" class="h" d="m1699.6 1988.4c-9.4 0-21.6-3.8-36-11.4-23.3-12.2-49.8-32.8-74.7-57.9-24.9-25.1-45.3-51.9-57.3-75.3-12.3-24.1-14.4-42.1-5.7-50.7 8.6-8.5 26.6-6.3 50.6 6.3 23.3 12.2 49.8 32.8 74.7 57.9 52.8 53.3 80.5 108.7 63 126-3.5 3.4-8.4 5.1-14.6 5.1zm-159.1-196c-5 0-8.9 1.3-11.5 3.9-7.1 7-4.7 23.6 6.6 45.5 11.8 23 31.8 49.4 56.4 74.2 24.6 24.8 50.7 45.1 73.6 57.1 21.8 11.5 38.4 14 45.5 7 15.2-15-13.7-69.8-63-119.7-24.6-24.8-50.8-45.1-73.7-57.1-13.7-7.2-25.4-10.9-33.9-10.9z"/><path class="k" d="m1901.1 1799.5c-72.7 0-131.6-18.6-131.6-41.7 0-23 58.9-41.7 131.6-41.7 72.8 0 131.6 18.7 131.6 41.7 0 23.1-58.8 41.7-131.6 41.7z"/><path class="k" d="m1769.5 1716.3h263.2v42.9h-263.2z"/><path class="f" d="m1901.1 1758.8c-72.7 0-131.6-18.6-131.6-41.7 0-23 58.9-41.7 131.6-41.7 72.8 0 131.6 18.7 131.6 41.7 0 23.1-58.8 41.7-131.6 41.7z"/><path fill-rule="evenodd" class="h" d="m1916.6 1761c-75 0-133.8-19.3-133.8-43.9 0-24.6 58.8-43.9 133.8-43.9 75.1 0 133.9 19.3 133.9 43.9 0 24.6-58.8 43.9-133.9 43.9zm0-83.3c-70.1 0-129.3 18-129.3 39.4 0 21.4 59.2 39.5 129.3 39.5 70.2 0 129.4-18.1 129.4-39.5 0-21.4-59.2-39.4-129.4-39.4z"/><path class="k" d="m1943.8 1739.2c-72.8 0-131.6-18.7-131.6-41.7 0-23 58.8-41.7 131.6-41.7 72.8 0 131.6 18.7 131.6 41.7 0 23-58.8 41.7-131.6 41.7z"/><path class="k" d="m1812.2 1656h263.2v42.9h-263.2z"/><path class="f" d="m1943.8 1698.5c-72.8 0-131.6-18.7-131.6-41.7 0-23 58.8-41.7 131.6-41.7 72.8 0 131.6 18.7 131.6 41.7 0 23-58.8 41.7-131.6 41.7z"/><path fill-rule="evenodd" class="h" d="m1959.3 1700.7c-75 0-133.8-19.3-133.8-43.9 0-24.6 58.8-43.9 133.8-43.9 75 0 133.8 19.3 133.8 43.9 0 24.6-58.8 43.9-133.8 43.9zm0-83.4c-70.2 0-129.4 18.1-129.4 39.5 0 21.4 59.2 39.5 129.4 39.5 70.1 0 129.4-18.1 129.4-39.5 0-21.4-59.3-39.5-129.4-39.5z"/><path class="f" d="m826.5 1730.1c-19.9 0-35.9-16-35.9-35.9 0-19.9 16-35.9 35.9-35.9 19.8 0 35.9 16 35.9 35.9 0 19.9-16.1 35.9-35.9 35.9z"/><path fill-rule="evenodd" class="g" d="m817.3 1732.3c-21 0-38.1-17.1-38.1-38.1 0-21 17.1-38.1 38.1-38.1 21.1 0 38.2 17.1 38.2 38.1 0 21-17.1 38.1-38.2 38.1zm0-71.8c-18.5 0-33.7 15.1-33.7 33.7 0 18.6 15.2 33.7 33.7 33.7 18.6 0 33.7-15.1 33.7-33.7 0-18.6-15.1-33.7-33.7-33.7z"/><path class="h" d="m468.1 1686.6l244.2 244.3c8.8 8.8 23 8.8 31.7 0l69.1-69.1 7.3-31.8 34.3-9.9 21.3-21.2c8.7-8.8 8.7-23 0-31.8l-244.2-244.3c-8.7-8.7-22.9-8.7-31.7 0l-21.2 21.3-7.2 30-34.5 11.6-69 69.2c-8.8 8.7-8.8 22.9-0.1 31.7z"/><path class="i" d="m537.2 1585.6l41.7-41.6 275.9 276-41.7 41.7z"/><path class="d" d="m1058.1 2052.6c-112.8 112.9-397.5 101.9-499.3 0-71.1-71.1 36.6-237.6 36.6-237.6 0-46.4 37.5-84 83.9-84h258.3c46.4 0 83.9 37.6 83.9 84v2.7c0 0 110.2 161.3 36.6 234.9z"/><path class="g" d="m1021.5 1818.1c-1.2 0-2.2-1-2.2-2.2v-0.9c0-44.7-36.3-81.1-80.9-81.1h-259.9c-44.6 0-80.9 36.4-80.9 81.1 0 1.2-1 2.2-2.2 2.2-1.3 0-2.3-1-2.3-2.2 0-47.1 38.3-85.5 85.4-85.5h259.9c47 0 85.3 38.4 85.3 85.5v0.9c0 1.2-1 2.2-2.2 2.2z"/><path fill-rule="evenodd" class="g" d="m593.6 2057.5c-28.3 0-43.3-32.8-44.9-56-3.2-47.6 26.2-126.4 47.2-164.7 0.4-0.7 1.2-1.2 2-1.2 0.8 0.1 1.6 0.6 1.9 1.3 17.5 37.5 41.5 116.7 39.1 161.9-1.5 27.1-14.2 58.7-45.3 58.7zm4.1-214.7c-21.2 40.4-47.5 115.2-44.6 158.4 1.8 24.9 17.7 51.8 40.5 51.8 36.8 0 40.6-48.9 40.9-54.5 2.3-42.8-19.7-117.2-36.8-155.7z"/><path class="f" d="m771.7 1730.1c-19.9 0-35.9-16-35.9-35.9 0-19.9 16-35.9 35.9-35.9 19.8 0 35.9 16 35.9 35.9 0 19.9-16.1 35.9-35.9 35.9z"/><path fill-rule="evenodd" class="g" d="m762.5 1732.3c-21 0-38.1-17.1-38.1-38.1 0-21 17.1-38.1 38.1-38.1 21 0 38.1 17.1 38.1 38.1 0 21-17.1 38.1-38.1 38.1zm0-71.8c-18.6 0-33.7 15.1-33.7 33.7 0 18.6 15.1 33.7 33.7 33.7 18.6 0 33.7-15.1 33.7-33.7 0-18.6-15.1-33.7-33.7-33.7z"/></svg>