<svg version="1.2" xmlns="http://www.w3.org/2000/svg" viewBox="0 0 4000 4000" width="4000" height="4000"><style>.a{fill:#f7f3e4}.b{fill:#fce395}.c{fill:#f4c27a}.d{fill:#8e623f}.e{fill:#e69845}.f{fill:#face87}.g{fill:#f2ae66}.h{fill:#de9342}.i{fill:#699c75}.j{fill:#53875f}.k{fill:#41704c}.l{fill:#ebc890}.m{fill:#9a7d65}.n{fill:#ffd99c}.o{fill:#dbb070}.p{fill:#eb913d}.q{fill:#f59a44}.r{fill:#faa352}.s{fill:#fbd0de}.t{fill:#a97356}.u{fill:#bd7d42}.v{fill:#e09d5e}.w{fill:#543423}.x{fill:#885f2d}.y{fill:#e0a499}.z{fill:#db9a86}.A{fill:#ce907a}.B{fill:#eaa18f}.C{fill:#809689}.D{fill:#9ab3b1}.E{fill:#f08478}.F{fill:#fce085}.G{fill:#eec562}.H{fill:#51301d}.I{fill:#e4b2ab}.J{fill:#fcd8d3}.K{fill:#c7928b}</style><path fill-rule="evenodd" class="a" d="m2111 406.9c690.6 0 1471.1 395.8 1483.3 1580 7.5 743.3-784.6 1452-1546 1467.8-776.9 15.9-1523.6-676-1544.6-1413.5-25.7-910.3 640.6-1634.3 1607.3-1634.3z"/><path fill-rule="evenodd" class="b" d="m2232.5 2453c579.1 0 1233.8 148.2 1244 591.7 6.3 278.3-658 543.8-1296.7 549.7-651.5 5.9-1277.8-253.2-1295.4-529.4-21.6-340.9 537.3-612 1348.1-612z"/><path fill-rule="evenodd" class="b" d="m2218.5 2604.8c425.1 0 905.8 108.7 913.2 434.3 4.8 204.3-483 399.1-951.7 403.4-478.3 4.5-938.2-185.6-950.9-388.5-15.9-250.3 394.2-449.2 989.4-449.2z"/><path fill-rule="evenodd" class="c" d="m2214.3 2650.6c378.5 0 806.3 97.1 813 386.7 4.3 182.1-430 355.5-847.3 359.4-425.9 3.8-835.2-165.5-846.5-346.1-14.2-222.8 350.9-400 880.8-400z"/><path fill-rule="evenodd" class="c" d="m1054.6 3071.6c-53.4-12.4-77.8-20.4-134.6-37.9 61.4-21 89.3-22.6 131.7-33 41.7 10.7 80.5 12.5 140.5 33.9-58 17.1-83 25-137.3 36.9l-0.1-0.2c0 0.2 0 0.3-0.2 0.3z"/><path fill-rule="evenodd" class="c" d="m3300.2 3071.6c-53.5-12.4-77.8-20.4-134.6-37.9 61.3-21 89.3-22.6 131.6-33 41.7 10.7 80.7 12.5 140.5 33.9-58.1 17.1-82.8 25-137.3 36.9v-0.2c-0.2 0.2-0.2 0.3-0.2 0.3z"/><path fill-rule="evenodd" class="c" d="m2152.7 2534c11.9-21.7 19.8-31.6 36.8-54.8 21.6 24.1 23.4 35.4 34 52.1-10.3 16.9-11.7 32.5-32.7 57.1-17.6-23-25.7-32.8-37.9-54.2 0-0.2 0-0.2 0.1-0.2-0.3 0-0.3 0-0.3 0z"/><path fill-rule="evenodd" class="c" d="m2152.7 3510.3c11.9-21.8 19.8-31.6 36.8-54.8 21.6 24.2 23.4 35.4 34 52.1-10.3 16.9-11.7 32.7-32.7 57.1-17.6-23-25.7-32.7-37.9-54.2 0 0 0 0 0.1 0-0.3 0-0.3-0.2-0.3-0.2z"/><path fill-rule="evenodd" class="d" d="m1131.7 2425.4c-4.6 10.8 0.3 118.6 0.8 184.4 1.9 1.4 54.5 2.4 87.4 0.8 1-40.2 0.4-158.7 0.2-189.6 0 0-63.1-2.2-88.4 4.4z"/><path fill-rule="evenodd" class="d" d="m3166.9 2425.4c-4.6 10.8 0.3 118.6 0.8 184.4 1.9 1.4 54.4 2.4 87.4 0.8 1-40.2 0.4-158.7 0.2-189.6 0 0-63.1-2.2-88.4 4.4z"/><path fill-rule="evenodd" class="e" d="m1094.4 2353.3c3.2 14.9-9.6 118.8 12 133.7 1091.5 7 1410.1 2.5 2184.5-2.8-2.7-13.9-15.2-109.9-22.2-136.6-472.4-5.7-988.6 4.7-1470 3.3-2.8 0-684-2.1-704.3 2.4z"/><path fill-rule="evenodd" class="f" d="m1045.8 1857.8c55.5-45.8 423.5-248.7 465-248.1 540.1 7.8 1021.3-3.3 1448.1 8.8 54.7 14.3 289.3 185.7 333.6 215.4 60.6 40.6-2248.1 25.1-2246.7 23.9z"/><path fill-rule="evenodd" class="g" d="m1045.8 1857.8c3.3 61.6-9.9 491.7 12.3 553.8 1127.9 28.8 1457.2 10.1 2257.4-12.1-2.8-57.2-15.7-454.9-23-565.6-488.1-23.5-1021.6 19.6-1519 13.8-2.9-0.1-706.8-8.8-727.7 10.1z"/><path fill-rule="evenodd" class="h" d="m1079.7 1902.1c1.5 53.3-4.7 425.1 5.8 479 718-2.4 690.3 18.6 1069.3 5-1.3-49.5-7.3-393.5-10.8-489.4-61.7-6.3-1059-3.3-1064.3 5.4z"/><path fill-rule="evenodd" class="h" d="m2188.7 1902.1c1.5 53.3-4.7 425.1 5.8 479 718-2.4 689.9 2.8 1069-10.9-1.3-49.5-7.1-377.6-10.6-473.5-61.7-6.3-1058.9-3.3-1064.2 5.4z"/><path fill-rule="evenodd" class="d" d="m2257.7 2146.6c23.1 39.1 67.7-8.6 37.2-30.3-24.1-17.1-50.6 7.4-37.2 30.3z"/><path fill-rule="evenodd" class="d" d="m2044.7 2146.6c23 39.1 67.7-8.6 37.1-30.3-24.1-17.1-50.6 7.4-37.1 30.3z"/><path fill-rule="evenodd" class="i" d="m2455 684.2c-4.5 40 11.3 202.1-137.6 418.1-86 124.8-97.8 366.1-32.7 465 42.4 64.6 94.2 120.5 150.4 152.2h189.6c47-29.4 93.5-83.5 137.3-170 105.4-208.2-37.9-419.7-157.4-599.3-26.4-39.6-31.6-75-33.1-269.2-25.9-7.4-62.4 3.2-116.5 3.2z"/><path fill-rule="evenodd" class="j" d="m2168.9 1251.6c-2.7 20.2 6.7 102.1-81.5 211.3-51 63.1-57.9 185-19.4 235 25.2 32.7 55.8 60.9 89.2 77h112.3c27.8-14.9 55.4-42.3 81.3-85.9 62.5-105.3-22.4-212.2-93.2-303-15.7-20-18.8-37.9-19.7-136-15.3-3.8-36.9 1.6-69 1.6z"/><path fill-rule="evenodd" class="k" d="m2233 1244.9c-1.3-0.7-15.6-4.1-30.4-4-16.5 0.1-33.7 4-33.7 10.7 6.4 16 89.7 7.9 64.1-6.7z"/><path fill-rule="evenodd" class="l" d="m1710.4 503.3c6.1-8.1 58.6-29.1 113.4-56.1 63.2-31.2 121-60.8 137.9-69 0.1 0 22.1-9.8 18.9-4.5-1.9 3.3-77.4 37.3-147.4 72.2-58.4 29.1-83 42.7-122.8 57.4z"/><path fill-rule="evenodd" class="l" d="m2249.4 504.3c-6.1-8.1-58.7-29.2-113.5-56.2-63.2-31.1-121-60.7-137.8-68.9-0.2 0-22.1-9.9-19-4.5 1.9 3.3 77.4 37.2 147.5 72.2 58.4 29.1 82.9 42.7 122.8 57.4z"/><path fill-rule="evenodd" class="m" d="m1977.2 371.8c-8.2 2.4-13 13.2-8.9 19 15.3 21.5 40.8-19 8.9-19z"/><path fill-rule="evenodd" class="n" d="m1699.6 478.8c16.7-6 340.9 4 558.9 4.4-2.9 71 4.1 537.8-11.7 542-2.4 0.7-544.5 1.4-551.1-0.9-12.9-55-9.6-454.1 4.3-538.9z"/><path fill-rule="evenodd" class="l" d="m1705.8 1050.8c15.5-2.7 11.7-35.4-7.4-28-3.9 1.5-9.7 24 1.7 27.7-4.3 25.3-15.6 84.6-9.9 84.6 30.9 0 22 7.3 21.3-51.3-0.1-15-2.7-24.8-5.7-33z"/><path fill-rule="evenodd" class="l" d="m1759.2 1051.2c-15.5-2.7-9.1-41.1 7.4-28 4.7 3.7 10.5 26.2-1.7 27.7 4.3 25.4 15.6 84.7 9.9 84.6-15.1-0.1-25.8 1.9-24.2-1.9 2.6-6.6 0.8-16.2 2.9-49.4 0.9-14.9 2.7-24.7 5.7-33z"/><path fill-rule="evenodd" class="l" d="m1825.8 1050.8c15.6-2.7 11.7-35.4-7.4-28-3.9 1.5-9.7 24 1.7 27.7-4.3 25.3-15.6 84.6-9.9 84.6 31 0 22 7.3 21.3-51.3-0.1-15-2.7-24.8-5.7-33z"/><path fill-rule="evenodd" class="l" d="m1879.2 1051.2c-15.5-2.7-9.1-41.1 7.4-28 4.7 3.7 10.5 26.2-1.6 27.7 4.2 25.4 15.5 84.7 9.8 84.6-15.1-0.1-25.8 1.9-24.2-1.9 2.6-6.6 0.8-16.2 2.9-49.4 0.9-14.9 2.7-24.7 5.7-33z"/><path fill-rule="evenodd" class="l" d="m1945.8 1050.8c15.6-2.7 11.7-35.4-7.4-28-3.9 1.5-9.7 24 1.7 27.7-4.3 25.3-15.6 84.6-9.8 84.6 30.9 0 21.9 7.3 21.3-51.3-0.2-15-2.7-24.8-5.8-33z"/><path fill-rule="evenodd" class="l" d="m1999.3 1051.2c-15.6-2.7-9.2-41.1 7.3-28 4.7 3.7 10.5 26.2-1.6 27.7 4.2 25.4 15.6 84.7 9.8 84.6-15-0.1-25.7 1.9-24.2-1.9 2.7-6.6 0.9-16.2 2.9-49.4 0.9-14.9 2.7-24.7 5.8-33z"/><path fill-rule="evenodd" class="l" d="m2065.8 1050.8c15.6-2.7 11.7-35.4-7.3-28-3.9 1.5-9.7 24 1.6 27.7-4.2 25.3-15.6 84.6-9.8 84.6 30.9 0 21.9 7.3 21.3-51.3-0.2-15-2.7-24.8-5.8-33z"/><path fill-rule="evenodd" class="l" d="m2119.3 1051.2c-15.6-2.7-9.1-41.1 7.3-28 4.7 3.7 10.6 26.2-1.6 27.7 4.2 25.4 15.5 84.7 9.8 84.6-15-0.1-25.7 1.9-24.2-1.9 2.7-6.6 0.9-16.2 2.9-49.4 0.9-14.9 2.7-24.7 5.8-33z"/><path fill-rule="evenodd" class="l" d="m2185.8 1050.8c15.6-2.7 11.7-35.4-7.3-28-3.9 1.5-9.7 24 1.6 27.7-4.2 25.3-15.6 84.6-9.8 84.6 30.9 0 21.9 7.3 21.3-51.3-0.2-15-2.7-24.8-5.8-33z"/><path fill-rule="evenodd" class="l" d="m2239.3 1051.2c-15.6-2.7-9.1-41.1 7.4-28 4.7 3.7 10.5 26.2-1.7 27.7 4.2 25.4 15.6 84.7 9.8 84.6-15-0.1-25.7 1.9-24.2-1.9 2.7-6.6 0.9-16.2 2.9-49.4 0.9-14.9 2.7-24.7 5.8-33z"/><path fill-rule="evenodd" class="l" d="m2257.4 872.1c-1.2 86-3.9 152.2-9.8 153.8-2.5 0.6-544.6 1.4-551.1-1-4.5-19-7-79-7.8-152.8 0 0 568.7 0 568.7 0z"/><path fill-rule="evenodd" class="l" d="m1700.1 479.6c16.7-6.1 340.9 4 558.9 4.4-0.6 15.5-0.8 49.8-0.8 94.2h-565.1c2-40.9 4.5-73.8 7.4-92.1z"/><path fill-rule="evenodd" class="g" d="m1968.4 795.4c41.5 5.7 87.6-23.8 74.7-98.2-13.5-77.5-90.1-75.8-126.6-35.8-37.5 41.3-33.5 122.2 51.9 134z"/><path fill-rule="evenodd" class="l" d="m1077.5 867.5c5.2-6.9 49.6-24.7 95.9-47.5 53.3-26.3 102.1-51.3 116.4-58.2 0.1 0 18.6-8.3 16-3.8-1.6 2.7-65.4 31.4-124.6 61-49.3 24.5-70 36-103.7 48.5z"/><path fill-rule="evenodd" class="l" d="m1532.8 868.3c-5.2-6.9-49.6-24.6-95.9-47.5-53.3-26.2-102.1-51.3-116.4-58.2-0.1 0-18.6-8.3-16-3.8 1.6 2.8 65.4 31.5 124.5 61 49.4 24.6 70.1 36.1 103.8 48.5z"/><path fill-rule="evenodd" class="m" d="m1302.9 756.3c-6.9 2.1-11 11.2-7.5 16.1 12.9 18.2 34.4-16.1 7.5-16.1z"/><path fill-rule="evenodd" class="n" d="m1068.4 846.8c14.1-5.1 287.9 3.4 472.1 3.7-2.5 59.9 3.5 454.2-9.9 457.8-2 0.6-459.9 1.2-465.5-0.8-10.9-46.5-8.1-383.6 3.6-455.2z"/><path fill-rule="evenodd" class="l" d="m1073.6 1329.9c13.2-2.3 9.9-29.9-6.2-23.7-3.3 1.3-8.2 20.3 1.4 23.5-3.6 21.4-13.2 71.4-8.3 71.4 26.1 0 18.5 6.2 18-43.3-0.2-12.7-2.3-20.9-4.9-27.9z"/><path fill-rule="evenodd" class="l" d="m1118.8 1330.3c-13.2-2.4-7.7-34.8 6.2-23.7 4 3.1 8.9 22.1-1.4 23.4 3.6 21.4 13.2 71.5 8.3 71.5-12.7-0.1-21.8 1.6-20.4-1.7 2.2-5.5 0.7-13.6 2.4-41.7 0.8-12.6 2.3-20.9 4.9-27.8z"/><path fill-rule="evenodd" class="l" d="m1175 1329.9c13.1-2.3 9.9-29.9-6.2-23.7-3.3 1.3-8.2 20.3 1.3 23.5-3.5 21.4-13.1 71.4-8.2 71.4 26.1 0 18.5 6.2 17.9-43.3-0.1-12.7-2.2-20.9-4.8-27.9z"/><path fill-rule="evenodd" class="l" d="m1220.1 1330.3c-13.1-2.4-7.7-34.8 6.3-23.7 3.9 3.1 8.8 22.1-1.4 23.4 3.6 21.4 13.1 71.5 8.3 71.5-12.7-0.1-21.8 1.6-20.5-1.7 2.3-5.5 0.8-13.6 2.5-41.7 0.7-12.6 2.3-20.9 4.8-27.8z"/><path fill-rule="evenodd" class="l" d="m1276.4 1329.9c13.1-2.3 9.8-29.9-6.3-23.7-3.2 1.3-8.2 20.3 1.4 23.5-3.5 21.4-13.1 71.4-8.3 71.4 26.1 0 18.6 6.2 18-43.3-0.1-12.7-2.3-20.9-4.8-27.9z"/><path fill-rule="evenodd" class="l" d="m1321.5 1330.3c-13.1-2.4-7.7-34.8 6.2-23.7 4 3.1 8.9 22.1-1.4 23.4 3.6 21.4 13.2 71.5 8.3 71.5-12.7-0.1-21.7 1.6-20.4-1.7 2.3-5.5 0.7-13.6 2.4-41.7 0.8-12.6 2.3-20.9 4.9-27.8z"/><path fill-rule="evenodd" class="l" d="m1377.7 1329.9c13.2-2.3 9.9-29.9-6.2-23.7-3.3 1.3-8.2 20.3 1.4 23.5-3.6 21.4-13.1 71.4-8.3 71.4 26.1 0 18.6 6.2 18-43.3-0.1-12.7-2.3-20.9-4.9-27.9z"/><path fill-rule="evenodd" class="l" d="m1422.9 1330.3c-13.2-2.4-7.7-34.8 6.2-23.7 4 3.1 8.9 22.1-1.4 23.4 3.6 21.4 13.2 71.5 8.3 71.5-12.7-0.1-21.7 1.6-20.4-1.7 2.2-5.5 0.7-13.6 2.4-41.7 0.8-12.6 2.3-20.9 4.9-27.8z"/><path fill-rule="evenodd" class="l" d="m1479.1 1329.9c13.2-2.3 9.9-29.9-6.2-23.7-3.3 1.3-8.2 20.3 1.4 23.5-3.6 21.4-13.2 71.4-8.3 71.4 26.1 0 18.5 6.2 18-43.3-0.2-12.7-2.3-20.9-4.9-27.9z"/><path fill-rule="evenodd" class="l" d="m1524.3 1330.3c-13.2-2.4-7.7-34.8 6.2-23.7 4 3.1 8.9 22.1-1.4 23.4 3.6 21.4 13.1 71.5 8.3 71.5-12.7-0.1-21.8 1.6-20.5-1.7 2.3-5.5 0.8-13.6 2.5-41.7 0.8-12.6 2.3-20.9 4.9-27.8z"/><path fill-rule="evenodd" class="o" d="m1539.6 1233.2c-1.1 42.4-3.4 75.1-8.4 75.9-2 0.3-459.9 0.7-465.5-0.5-3.7-9.4-5.9-38.9-6.5-75.4 0 0 480.4 0 480.4 0z"/><path fill-rule="evenodd" class="o" d="m1068.9 846c14.1-0.8 287.9 0.6 472 0.6-0.5 2.1-0.6 6.7-0.6 12.7h-477.4c1.7-5.5 3.8-9.9 6.3-12.4z"/><path fill-rule="evenodd" class="g" d="m1295.5 1114.2c35 4.8 73.9-20.2 63-83-11.4-65.4-76.1-64-106.9-30.2-31.7 34.8-28.2 103.2 43.9 113.2z"/><path fill-rule="evenodd" class="g" d="m1306.2 960.5c5.2 3.2 11-13.7 9.3-56.2-1.6-44.4-11.2-43.4-15.8-20.5-4.7 23.6-4.1 69.9 6.5 76.7z"/><path fill-rule="evenodd" class="g" d="m1364.7 996.1c0.5 4.7 13.6 0.1 38.7-21.3 26.2-22.3 21-27.6 4.9-19.4-16.6 8.4-44.6 31-43.6 40.7z"/><path fill-rule="evenodd" class="g" d="m1175.4 1153.3c0.5 4.7 13.5 0.1 38.6-21.3 26.2-22.3 21.1-27.6 4.9-19.4-16.6 8.4-44.5 31-43.5 40.7z"/><path fill-rule="evenodd" class="g" d="m1191.4 923.7c-4.8 0.5-0.2 13.5 21.1 38.7 22.3 26.2 27.7 21.1 19.5 4.9-8.4-16.6-30.9-44.6-40.6-43.6z"/><path fill-rule="evenodd" class="g" d="m1353.3 1111.8c-4.7 0.5-0.2 13.6 21.2 38.7 22.2 26.3 27.6 21.1 19.4 5-8.4-16.6-30.9-44.7-40.6-43.7z"/><path fill-rule="evenodd" class="g" d="m1296.3 1224.2c5.2 3.2 11-13.7 9.3-56.2-1.6-44.4-11.2-43.4-15.8-20.5-4.6 23.6-4.1 69.9 6.5 76.7z"/><path fill-rule="evenodd" class="g" d="m1483.3 1054.7c3.2-5.2-13.7-10.8-56.3-9-44.3 1.9-43.3 11.4-20.4 15.9 23.6 4.6 70 3.8 76.7-6.9z"/><path fill-rule="evenodd" class="g" d="m1203.5 1046.4c3.2-5.2-13.7-10.9-56.3-9.1-44.3 1.9-43.3 11.5-20.4 15.9 23.6 4.6 70 3.9 76.7-6.8z"/><path fill-rule="evenodd" class="p" d="m1962.1 3209.1c-155.4 157.4 9.7 348.5 285.4 352.1 18.4 0.3 40.1 11.2 61.9 26 79.2 53.5 106.3 36.5 117.7 18.9 10.9-17 3.9-48.2-51-92.3-51.9-42.1-113.6-55.8-237.7-86.2-182.8-44.6-100.2-126.1-176.3-218.5z"/><path fill-rule="evenodd" class="p" d="m2481.8 3433.7c24-39-49.9-78.9-117.7-121.6-67.3-41.9-139.5-53.6-148.2-36.8-5.8 10.8 17.9 22.6 86.2 90.4 23.5 23.1 172.2 80.3 179.7 68z"/><path fill-rule="evenodd" class="q" d="m2706.1 3111.8c82.1 29.3 148.7 96.5 135.1 112.1-12 13.7-15.7 38.8-152.4-25.4-1.1-0.5-125.8-50.7-128-48.8-2.3 14.2-15.6 26.2-25.1 34.9 53 32.4 230.7 88.4 281.5 136.7 42.4 40.2 25.9 68.1-59.2 36.8-150.1-54.9-282.3-85.9-326.7-113.5-88.7 70-152.3 51-189.1 49.1 14.2 16.2 39.3 40.7 78.9 76.7 0.6 0.6 146.8 43.2 201.2 85.4 18.7 14.5 20.6 33.4 11.4 46-24.8 34.3-277-73.7-364.1-82.6-84.2-8.6-303-144.8-200-303 101-154.8 455.3-194.4 622.1-79.8 78.4 53.9 114.4 75.4 114.4 75.4z"/><path fill-rule="evenodd" class="r" d="m2304.1 2806.6c7.3 2.2 39.6 34.6 42.7 51.8 32.9-33.7 54.4-41.5 85.9-49.1 33.2-7.8 48.8-8.6 82.3 0.3 20.9-31.5 40.2-58.8 62.5-75.3 0.6-0.6 61.4 168.8 72.6 202.3 36.5 109.1-108.6 198.6-228 196.9-214-3.3-123-328.3-118-326.9z"/><path fill-rule="evenodd" class="s" d="m2580.9 2984.6c9.2 10.8 45.2-3.4 30.9-24.6-12.8-19.5-44.3 8.9-30.9 24.6z"/><path fill-rule="evenodd" class="t" d="m2474 2966.7c-12.8 5.6-26.5 14.2-24.5 22.6 2.5 10.3 19.8 9.2 29.8 18.7 4.8 4.5 7.5 9.5 9.5 13.7 0.8 2.2-18.1 4.7-17.6 6.1 5.3 10.3 43-3.4 39.1-12.8-0.3-1.4-16.5 6.4-17.3 4.4-1.7-4.4-3.4-10-2.3-15.6 2.3-11.2 19.9-23.4 15.7-31.8-4.8-10-22.3-10.3-32.4-5.3z"/><path fill-rule="evenodd" class="u" d="m2640.6 2946.1c34-3.1 60.5 0.8 92 13.9 8.7 3.6 10.6 5 9.2 5-3.3 0.6-25.1-5.3-25.9-5.6-12-3.6-22.6-5-25.7-5.5-25.1-3.4-51.6-0.9-50.2-6.5 0.3-0.8-0.3-1.3 0.6-1.3zm-12.9 10.8c34.1 0 60.3 6.4 90.4 22.4 8.4 4.4 10.1 6.1 8.7 6.1-3.4 0-24.6-7.8-25.4-8.1-11.5-5-22.1-7.3-24.8-8.1-24.9-5.6-51.7-5.3-49.4-10.9 0.3-0.8-0.3-1.4 0.5-1.4zm0.3-23.1c33.2-9 60-9.5 93.2-1.7 9.2 2 11.4 3.1 10 3.6-3.3 0.9-25.6-1.4-26.5-1.4-12.5-1.6-23.1-1.4-26.2-1.4-25.4 1.2-51.3 8.1-50.8 2.3 0.3-1.1-0.2-1.4 0.3-1.4z"/><path fill-rule="evenodd" class="u" d="m2324.5 3041.5c3.9 3.9-19 13.1-38 26.8-2.2 1.6-10.3 7.2-18.4 15.6-0.5 0.5-15.6 14.8-18.4 15.9-1.4 0.3-0.6-1.7 5-8.4 19.8-24.3 39.9-38.8 68.9-51 0.6-0.3 0.3 0.2 0.9 1.1zm15.3 3c4.2 3.7-17.6 15.1-35.4 30.4-2 1.7-9.5 8.1-16.8 17.3-0.5 0.6-14.2 15.9-17 17.3-1.4 0.6-0.5-1.4 4.2-8.6 17.6-26 36.3-42.4 63.9-57.2 0.6-0.3 0.6 0.3 1.1 0.8zm-10.6-18.4c2.8 4.5-20.9 9.8-42.1 20.1-2.5 1.4-11.5 5.6-20.7 12.3-0.5 0.5-17.8 12-20.9 12.5-1.4 0.3 0-1.6 6.4-7.2 23.7-20.7 45.8-31.5 76.2-38.8 0.8-0.3 0.6 0.3 1.1 1.1z"/><path fill-rule="evenodd" class="v" d="m2314.4 2903.9c-5.6-15.6-7.5-36-1.4-51.6 0 0 4.2 3.4 10.1 13.4 8.9 15.1 12.5 15.9 20.9 26.8 1.4 1.7-9.2-0.6-14-5.6-3.3-3.9 0.3 24-7.8 0.8-1.6-3.9-8.6 16.8-8.6 16.8z"/><path fill-rule="evenodd" class="v" d="m2584.2 2825.2c-0.5-16.4-6.1-35.9-17.3-48.5 0 0-2.8 4.7-4.7 16.2-2.8 17-5.9 19.2-10.1 32.3-0.5 2.3 8.7-3.9 11.2-10 1.7-4.7 8.4 22.3 7.8-2.2 0-4.2 13.9 12.8 13.9 12.8z"/><path fill-rule="evenodd" class="w" d="m2399.8 3016.1c-5.9 3.9-10.3-0.9-11.7-2.8-5.9-8.4-0.3-17.3 4.4-17.9 8.4-1.4 20.1 12.3 7.3 20.7z"/><path fill-rule="evenodd" class="w" d="m2569.4 2955c-5.6 3.6-10.3-1.1-11.4-3.1-6.2-8.4-0.3-17.3 4.4-17.8 8.1-1.2 20.1 12.2 7 20.9z"/><path fill-rule="evenodd" class="r" d="m2395.1 3528.6c-2.3-3.4 12.5 31 4.4 29-8.1-2-30.1-31-31.8-30.7 1.4 9.2 12.8 24 8.1 25.1-3.6 0.9-29.8-20.9-29.8-19 0.2 16.8 32.9 36 26.7 39.4-0.2 0-34-21.2-36.5-19-3.1 2.8 12.3 11.7 12.3 21.5 0.2 5.6-15.4-3.1-16.5-0.3-2 5.3 22 22.1 29.3 28.5 5 4.4-38.2-10.9-36-7.3 3.4 6.4 53.6 31.5 66.4 32.4 7.8 0.5 20.4-3.4 29.3-13.7 36.3-42.4-19.5-77.5-25.9-85.9z"/><path fill-rule="evenodd" class="s" d="m2413.2 3037.6c4.5 13.6-26.2 36.8-37.1 13.9-10.1-21.5 30.7-33.5 37.1-13.9z"/><path fill-rule="evenodd" class="x" d="m1624.4 2847.5c8.2 74.6 10 160 15.8 258.5 63.9-57.1 76.2-214.9 77.4-248.2 0.8-22.8-23.5-2.6-93.2-10.3z"/><path fill-rule="evenodd" class="x" d="m1091.3 2885.8c19.9 123.7 6.3 228.2-15.8 362.3-63.9-79.8-76.2-301.2-77.2-347.9-0.8-31.9 23.3-3.6 93-14.4z"/><path fill-rule="evenodd" class="x" d="m714.2 2835.4c-8 74.7-10 160.1-15.7 258.5-64-57-76.1-214.8-77.3-248.2-0.8-22.7 23.5-2.5 93-10.3z"/><path fill-rule="evenodd" class="y" d="m769.4 2353.3c142.8-82.9 451.5-169.3 626-136.5 2.3 0.4 316 149.7 341 318.7-117.4 59.6-533.2 147.8-712.3 149.3-5.2-43.9-83.3-205.1-141.4-231.7-1.3-0.7-117.1-97.7-113.3-99.8z"/><path fill-rule="evenodd" class="z" d="m1275.6 1612.5c35.5 74.1 134.1 548.4 119.3 607-183.7 15.7-381.9-7.7-710.7 212-107.4 71.8-292-539.1-289.2-610.5 9.4-245.2 796.4-384.8 880.6-208.5z"/><path fill-rule="evenodd" class="A" d="m399.1 1793c-60.2 114.8 5.9 905.5 226.1 1051.3l425.7 102.8 668.6-102.8c0.1-0.4 0.2-0.7 0.2-1.1 1.5-9.7 96.9-209.7 71-354-121.5 83.6-579.6 168.2-741.4 176.8-91-305.4-422.6-436.4-477.5-461.5-24.6-118.7-77.4-253.6-172.7-411.5z"/><path fill-rule="evenodd" class="A" d="m1299.6 2063.5c9 75.8 7.4 130.1 22 188.2 10.1 39.9 273.7 83 414.8 283.8 21.8-236.3-440.2-501.6-436.8-472z"/><path fill-rule="evenodd" class="B" d="m1299.6 2063.4c33.9-11.1 52.8-13 64.4-13.6 158.5-9.2 493.3 421.9 421.1 459.8-17.8 9.3-28.1 25.9-48.7 25.9 0-72.7-77.2-192.6-179.8-297.7-76.7-78.6-209.4-153.4-257-174.4z"/><path fill-rule="evenodd" class="B" d="m569.6 2208.4c33.9-11.1 44-21.7 55.6-22.4 158.6-9.2 493.6 438 421.4 475.9-17.8 9.3-48.3 9.3-69 9.3 0-72.8-76.2-177.8-178.7-282.8-76.7-78.8-181.7-158.9-229.3-180z"/><path fill-rule="evenodd" class="C" d="m1709.8 1651.6c-2.8 22.2 3.8 38.5 16.2 49.8h151.1c9.1-10.5 11.5-26.7 11.1-51.9-12-13.9-36.3-20.1-51.3-21.7-19.2-1.8-117.1-5-127.1 23.8z"/><path fill-rule="evenodd" class="D" d="m1706.1 1625.8c-23.9 52.9 124 58.5 166 36.3 49.1-25.8-7.4-55.5-37.5-58-19.2-1.3-118.4-0.5-128.5 21.7z"/><path fill-rule="evenodd" class="C" d="m1734.5 1629.9c-16.4 36.5 85.4 40.3 114.4 25 33.9-17.8-5.1-38.2-26-39.8-13.1-1-81.4-0.6-88.4 14.8z"/><path fill-rule="evenodd" class="E" d="m1764.2 1348.2c2.7 23.7 3.8 312.6 3.8 312.6 0.4 0 45.5 7.9 70-3.6-5.5-18.4-13.9-302-19-317.3-3.2-9.6-20.5-11.8-30.1-11.1-14.5 1.4-25 14.7-24.7 19.4z"/><path fill-rule="evenodd" class="F" d="m1788.7 1329.2c-22 3-25.8 14.5-24.3 20.2 2.8 10.5 57 11.8 55.2-6.4-0.6-5.3-14.3-16-30.9-13.8z"/><path fill-rule="evenodd" class="G" d="m1781.7 1250.2c5.1-15.1 12.8-33.7 15.1-33.3 2.4 0.5-0.4 22 7.5 40.8 10.6 25.6 5.3 34.1-7.5 56.1-23.9-10.9-22.8-41-15.1-63.6z"/><path fill-rule="evenodd" class="H" d="m1789.6 1297.6c3.2 5.6-1.1 43.5 1.7 43.5 7.2 0 5.1 1.3 6-14.3 0.2-2.9 2.1-26.7 0.2-27.5-2.8-1.1-7.3-0.6-7.9-1.7z"/><path fill-rule="evenodd" class="o" d="m3099.2 2734.6c154.4 5.1 312.8 2.2 328.4 1.8 11.3 21.9 55.5 97 75.3 132.1 0.1 22.2 0.3 41.1 0 48.7-64.4 10.7-501.7 11.6-499.2 3.9 0 0-5.1-25 0-49.8 28.2-55.2 95.4-136.7 95.5-136.7z"/><path fill-rule="evenodd" class="l" d="m3099.2 2734.6c154.4 3.7 312.8 1.6 328.4 1.3 16.3 23.1 76.1 114.4 75.3 132.6-64.4 7.9-501.7 8.5-499.2 2.8 2.7-6.1 95.3-136.7 95.5-136.7z"/><path fill-rule="evenodd" class="d" d="m3227.8 1406.6c-5 355-3 1055.6-2 1398.2h56.1c0.8-292.1-0.9-1173.8-1.3-1398.2z"/><path fill-rule="evenodd" class="I" d="m3046.7 983.5c87.4 22.6 148.2-7.7 395-1.1 20.6 132.2 87.9 1113 86 1113-41.9 0-551.4 30.2-544.1-12.7 7.8-45.2 56.8-967 63.1-1099.2z"/><path fill-rule="evenodd" class="J" d="m3260.2 988.7c-13.3-3.2-83.8 115.4-117.4 160.6 14.5 11 101.7 134.1 119.4 115.3 50.8-53.7 73.6-91.1 103.2-131.1-54.6-64.2-105.2-144.8-105.2-144.8z"/><path fill-rule="evenodd" class="K" d="m3256.5 1265.4c-13.1-3.2-83.7 115.4-117.2 160.5 14.3 11.1 101.5 134.2 119.3 115.3 50.8-53.6 73.5-91 103.3-131.1-54.7-64.2-105.4-144.7-105.4-144.7z"/><path fill-rule="evenodd" class="J" d="m3248.6 1542c13.2-3.2 83.7 115.4 117.3 160.5-14.4 11.1-101.6 134.2-119.4 115.4-50.7-53.7-73.5-91.1-103.1-131.1 54.6-64.3 105.2-144.8 105.2-144.8z"/><path fill-rule="evenodd" class="K" d="m3252.2 1818.6c13.2-3.1 83.7 115.5 117.2 160.6-14.3 11.1-101.5 134.2-119.3 115.3-50.7-53.6-73.5-91-103.2-131.1 54.6-64.2 105.3-144.8 105.3-144.8z"/><path fill-rule="evenodd" class="K" d="m3180.4 1281.3l-2.3-2.7c-33-37-65.9-74.4-99.8-110.6l-26.2 34.1c10.5 12.1 31.7 34.7 52.7 58.4 7.6 8.6 15.2 17.4 22.4 25.6-6.9 8.8-14.2 18.1-21.4 27.3-21 26.6-42.2 52.1-52.6 65.6l26.1 30.5c21.9-26.2 79.9-98.8 102.1-127l-1-1.2z"/><path fill-rule="evenodd" class="K" d="m3308.2 1276.3l2.3-2.6c32.9-37.1 65.9-74.5 99.7-110.7l26.2 34.1c-10.5 12.1-31.6 34.7-52.6 58.4-7.7 8.7-15.3 17.4-22.5 25.6 7 8.8 14.2 18.1 21.5 27.3 21 26.6 42.2 52.1 52.6 65.6l-26.1 30.5c-21.9-26.2-80-98.8-102.1-127l1-1.2z"/><path fill-rule="evenodd" class="K" d="m3324.5 1818.7l2.7-3c37.8-42.5 75.6-85.4 114.5-126.9l30 39.1c-12 13.9-36.3 39.8-60.4 67-8.7 9.9-17.4 20-25.7 29.4 7.9 10.1 16.2 20.8 24.6 31.3 24 30.5 48.4 59.8 60.3 75.2l-30 35.1c-25-30.1-91.6-113.4-117.1-145.8l1.2-1.3z"/><path fill-rule="evenodd" class="K" d="m3188.8 1822.1l-2.7-2.9c-37.7-42.6-75.6-85.4-114.4-127l-30 39.1c11.9 13.9 36.3 39.9 60.4 67.1 8.7 9.8 17.4 19.9 25.7 29.3-8 10.2-16.3 20.8-24.6 31.3-24.1 30.5-48.4 59.8-60.4 75.3l30 35c25-30.1 91.7-113.4 117.2-145.7l-1.2-1.4z"/></svg>